<svg id="svg" version="1.1" xmlns="http://www.w3.org/2000/svg" xmlns:xlink="http://www.w3.org/1999/xlink" width="400" height="400" viewBox="0, 0, 400,400"><g id="svgg"><path id="path0" d="M197.000 106.002 C 196.293 106.309,190.624 108.098,182.800 110.484 C 181.370 110.920,179.210 111.605,178.000 112.005 C 176.790 112.406,173.910 113.303,171.600 114.000 C 169.290 114.697,166.410 115.597,165.200 116.000 C 163.990 116.403,161.110 117.300,158.800 117.992 C 156.490 118.685,154.150 119.408,153.600 119.598 C 152.284 120.054,146.053 121.999,140.800 123.592 C 138.490 124.293,135.610 125.197,134.400 125.600 C 133.190 126.003,130.310 126.893,128.000 127.577 C 121.939 129.371,121.862 129.423,121.465 132.014 C 120.898 135.704,120.669 167.258,121.171 172.400 C 122.063 181.533,123.505 190.409,125.200 197.200 C 125.392 197.970,125.765 199.500,126.029 200.600 C 131.087 221.718,142.686 242.589,157.042 256.410 C 162.033 261.214,172.710 269.600,173.836 269.600 C 173.957 269.600,174.808 270.112,175.728 270.738 C 179.324 273.187,190.141 278.185,196.400 280.290 L 199.800 281.433 202.000 280.689 C 224.971 272.915,243.556 258.842,256.700 239.269 C 257.635 237.877,258.400 236.649,258.400 236.541 C 258.400 236.433,258.914 235.592,259.542 234.672 C 262.089 230.944,266.916 220.441,270.421 211.000 C 272.223 206.146,275.119 194.605,276.342 187.400 C 279.151 170.862,279.891 152.904,278.459 136.000 C 277.989 130.444,277.610 129.308,276.114 128.971 C 275.501 128.833,274.010 128.396,272.800 128.000 C 271.590 127.603,268.710 126.699,266.400 125.990 C 264.090 125.281,261.210 124.381,260.000 123.990 C 258.790 123.599,255.910 122.699,253.600 121.990 C 251.290 121.281,248.410 120.378,247.200 119.984 C 245.990 119.589,243.110 118.697,240.800 118.000 C 238.490 117.303,235.610 116.403,234.400 116.000 C 233.190 115.597,230.310 114.697,228.000 114.000 C 225.690 113.303,222.810 112.406,221.600 112.005 C 220.390 111.605,218.230 110.920,216.800 110.484 C 209.121 108.142,203.295 106.308,202.481 105.975 C 201.353 105.514,198.086 105.530,197.000 106.002 M202.081 117.963 C 202.587 118.162,204.890 118.900,207.200 119.602 C 209.510 120.304,212.390 121.196,213.600 121.584 C 214.810 121.972,217.150 122.699,218.800 123.200 C 220.450 123.701,222.790 124.428,224.000 124.816 C 225.210 125.204,228.090 126.101,230.400 126.810 C 232.710 127.519,235.590 128.412,236.800 128.794 C 238.010 129.176,240.350 129.900,242.000 130.403 C 243.650 130.906,246.530 131.805,248.400 132.400 C 250.270 132.995,253.150 133.895,254.800 134.400 C 256.450 134.905,259.420 135.833,261.400 136.464 C 263.380 137.095,265.440 137.744,265.978 137.907 C 267.616 138.404,267.933 141.759,267.968 158.979 C 267.998 173.099,267.854 176.033,266.753 183.800 C 266.028 188.912,264.351 197.518,263.597 200.000 C 263.430 200.550,263.065 201.810,262.786 202.800 C 261.624 206.929,259.810 212.202,258.589 215.000 C 258.301 215.660,257.745 217.010,257.353 218.000 C 256.428 220.333,252.143 228.675,251.160 230.056 C 250.742 230.643,250.400 231.241,250.400 231.384 C 250.400 231.701,247.540 235.941,245.679 238.383 C 237.088 249.655,226.530 258.262,213.752 264.413 C 201.592 270.266,200.354 270.550,195.000 268.711 C 177.226 262.608,161.078 250.017,149.714 233.400 C 147.862 230.692,144.217 223.898,142.042 219.101 C 140.175 214.984,137.660 208.061,136.411 203.600 C 136.134 202.610,135.770 201.350,135.603 200.800 C 135.436 200.250,135.088 198.810,134.830 197.600 C 134.572 196.390,134.204 194.680,134.013 193.800 C 133.822 192.920,133.476 191.210,133.245 190.000 C 132.841 187.890,132.668 186.799,131.524 179.200 C 130.762 174.136,130.851 142.002,131.633 139.809 C 132.249 138.082,132.403 138.011,141.600 135.204 C 143.250 134.701,145.590 133.979,146.800 133.600 C 148.010 133.221,150.890 132.321,153.200 131.600 C 155.510 130.879,158.390 129.979,159.600 129.600 C 160.810 129.221,163.150 128.500,164.800 127.997 C 166.450 127.494,169.330 126.595,171.200 126.000 C 173.070 125.405,175.950 124.506,177.600 124.003 C 179.250 123.500,181.590 122.779,182.800 122.400 C 184.010 122.021,186.890 121.121,189.200 120.399 C 191.510 119.678,194.300 118.771,195.400 118.383 C 197.624 117.601,200.677 117.409,202.081 117.963 M189.800 141.200 C 189.651 141.442,190.196 141.600,191.176 141.600 C 192.901 141.600,193.534 143.106,192.320 144.320 C 192.056 144.584,191.991 144.800,192.176 144.800 C 192.671 144.800,193.573 143.498,193.587 142.762 C 193.616 141.329,190.511 140.049,189.800 141.200 M196.889 141.423 C 196.393 141.770,196.019 142.434,196.043 142.923 C 196.080 143.702,196.134 143.675,196.527 142.681 C 196.910 141.709,197.155 141.577,198.384 141.681 L 199.800 141.800 199.800 144.800 L 199.800 147.800 198.352 147.921 C 197.135 148.023,196.860 147.895,196.625 147.121 C 196.446 146.531,196.269 146.388,196.132 146.723 C 195.401 148.510,198.683 149.384,199.971 147.746 C 202.383 144.679,199.802 139.382,196.889 141.423 M203.000 141.200 C 202.849 141.444,203.463 141.600,204.576 141.600 C 206.187 141.600,206.405 141.705,206.446 142.500 C 206.487 143.284,206.518 143.300,206.690 142.626 C 207.038 141.259,203.749 139.987,203.000 141.200 M210.265 141.700 C 210.437 141.975,210.690 143.640,210.827 145.400 L 211.076 148.600 211.138 144.900 C 211.190 141.789,211.101 141.200,210.576 141.200 C 210.178 141.200,210.065 141.380,210.265 141.700 M205.068 145.019 C 204.462 145.778,204.109 146.390,204.283 146.378 C 204.690 146.349,206.546 144.013,206.332 143.799 C 206.243 143.710,205.674 144.259,205.068 145.019 M190.478 146.519 C 189.775 147.245,189.200 148.055,189.200 148.319 C 189.200 148.912,193.038 148.986,193.400 148.400 C 193.549 148.158,193.004 148.000,192.024 148.000 C 190.173 148.000,189.974 147.505,191.270 146.126 C 191.748 145.617,192.053 145.200,191.948 145.200 C 191.843 145.200,191.182 145.794,190.478 146.519 M202.920 147.557 C 202.276 148.588,202.609 148.800,204.867 148.800 C 207.139 148.800,207.483 148.105,205.300 147.924 C 204.362 147.847,203.837 147.613,203.900 147.300 C 204.051 146.544,203.454 146.701,202.920 147.557 M190.654 247.229 C 188.569 248.869,189.470 254.400,191.823 254.400 C 193.162 254.400,193.062 253.683,191.700 253.527 C 190.644 253.405,190.595 253.299,190.480 250.865 C 190.340 247.899,190.754 247.200,192.649 247.200 C 193.392 247.200,194.000 247.020,194.000 246.800 C 194.000 246.087,191.737 246.377,190.654 247.229 M207.993 247.125 C 207.318 247.672,207.073 248.338,207.000 249.825 C 206.946 250.911,206.976 251.260,207.066 250.600 C 207.415 248.031,207.997 247.200,209.449 247.200 C 210.192 247.200,210.800 247.020,210.800 246.800 C 210.800 246.136,208.950 246.350,207.993 247.125 M197.054 248.656 C 196.676 251.416,196.746 254.000,197.200 254.000 C 197.433 254.000,197.600 252.667,197.600 250.800 C 197.600 247.794,197.993 246.761,198.567 248.257 C 198.926 249.194,199.326 248.628,199.010 247.630 C 198.498 246.020,197.332 246.632,197.054 248.656 M202.814 247.574 C 202.296 248.541,202.293 248.800,202.800 248.800 C 203.020 248.800,203.200 248.530,203.200 248.200 C 203.200 247.870,203.380 247.600,203.600 247.600 C 203.833 247.600,204.000 248.933,204.000 250.800 C 204.000 252.667,204.167 254.000,204.400 254.000 C 204.833 254.000,204.965 248.495,204.557 247.433 C 204.224 246.564,203.315 246.638,202.814 247.574 M199.200 250.153 C 199.200 250.483,199.380 250.864,199.600 251.000 C 199.820 251.136,200.000 250.977,200.000 250.647 C 200.000 250.317,199.820 249.936,199.600 249.800 C 199.380 249.664,199.200 249.823,199.200 250.153 M201.892 250.242 C 201.731 250.402,201.600 250.809,201.600 251.147 C 201.600 251.597,201.718 251.642,202.045 251.315 C 202.290 251.070,202.421 250.663,202.337 250.410 C 202.252 250.157,202.052 250.081,201.892 250.242 M194.288 252.100 C 194.177 252.815,194.246 253.571,194.443 253.780 C 194.656 254.007,194.800 253.483,194.800 252.480 C 194.800 250.474,194.568 250.302,194.288 252.100 M207.213 252.756 C 207.206 253.062,207.515 253.551,207.900 253.843 C 208.720 254.465,211.200 254.583,211.200 254.000 C 211.200 253.780,210.545 253.600,209.744 253.600 C 208.827 253.600,208.092 253.341,207.757 252.900 C 207.369 252.389,207.222 252.350,207.213 252.756 " stroke="none" fill="#082b60" fill-rule="evenodd"></path><path id="path1" d="M0.000 200.000 L 0.000 400.000 200.000 400.000 L 400.000 400.000 400.000 200.000 L 400.000 0.000 200.000 0.000 L 0.000 0.000 0.000 200.000 M202.526 70.253 C 204.672 74.319,204.302 74.102,210.159 74.742 C 213.981 75.160,214.031 75.890,210.459 79.157 L 207.517 81.848 207.767 84.224 C 208.637 92.518,209.050 91.995,203.722 89.351 L 199.995 87.501 196.298 89.355 C 191.127 91.948,190.388 91.409,192.031 86.240 C 193.037 83.078,192.615 81.851,189.600 79.172 C 185.680 75.688,185.797 75.156,190.600 74.622 C 195.876 74.036,195.451 74.311,197.522 70.142 C 199.819 65.518,200.029 65.522,202.526 70.253 M168.384 78.253 L 170.200 81.901 172.200 82.175 C 173.300 82.326,174.920 82.537,175.800 82.642 C 180.114 83.162,180.134 83.385,176.200 87.226 C 173.132 90.223,172.629 91.341,173.546 93.126 C 173.736 93.497,174.011 95.015,174.157 96.500 C 174.485 99.839,174.395 99.858,169.736 97.400 C 165.587 95.212,166.178 95.208,161.733 97.444 C 157.588 99.529,156.991 99.475,157.354 97.048 C 157.490 96.142,157.770 94.230,157.977 92.800 L 158.352 90.200 155.308 87.123 C 151.783 83.559,151.804 83.070,155.503 82.649 C 161.676 81.947,161.172 82.241,163.328 78.076 C 165.721 73.454,166.001 73.464,168.384 78.253 M237.621 78.201 C 239.702 82.217,239.262 81.962,245.297 82.649 C 248.996 83.070,249.017 83.559,245.492 87.123 L 242.448 90.200 242.843 92.800 C 243.060 94.230,243.340 96.091,243.464 96.935 C 243.834 99.442,243.271 99.509,239.125 97.452 C 234.608 95.210,235.251 95.214,231.107 97.400 C 226.427 99.869,226.314 99.846,226.643 96.500 C 226.789 95.015,227.064 93.497,227.254 93.126 C 228.257 91.173,227.705 89.923,224.526 86.943 C 220.955 83.597,220.978 83.053,224.710 82.644 C 225.969 82.506,227.822 82.289,228.827 82.162 L 230.654 81.931 232.538 78.138 C 234.873 73.438,235.155 73.442,237.621 78.201 M135.631 93.281 C 137.639 97.458,138.148 97.995,140.129 98.026 C 142.636 98.064,146.527 98.982,146.727 99.582 C 146.824 99.872,145.533 101.403,143.858 102.982 L 140.813 105.855 141.227 108.627 C 141.454 110.152,141.740 112.073,141.862 112.897 C 142.191 115.122,141.344 115.190,137.483 113.246 C 133.454 111.218,133.255 111.217,129.400 113.200 C 124.979 115.474,124.692 115.415,125.036 112.300 C 125.188 110.925,125.467 109.383,125.656 108.874 C 126.456 106.720,126.100 105.918,122.921 102.721 C 121.228 101.018,119.961 99.506,120.105 99.361 C 120.500 98.967,123.479 98.374,126.320 98.125 L 128.839 97.904 130.464 94.652 C 133.226 89.123,133.586 89.027,135.631 93.281 M268.510 94.400 L 270.264 97.800 272.832 98.079 C 275.872 98.409,278.727 98.994,279.095 99.361 C 279.239 99.506,277.972 101.018,276.279 102.721 C 273.016 106.002,272.714 106.752,273.569 109.440 C 275.199 114.567,274.317 115.478,269.883 113.246 C 265.830 111.206,265.474 111.206,261.591 113.253 C 259.658 114.273,258.196 114.807,257.778 114.647 C 257.061 114.372,257.058 114.492,257.927 108.240 L 258.255 105.880 255.313 103.064 C 253.694 101.516,252.422 99.982,252.485 99.656 C 252.613 98.995,256.348 98.068,259.051 98.026 C 260.988 97.996,261.157 97.823,263.290 93.715 C 265.712 89.047,265.751 89.052,268.510 94.400 M239.600 117.047 C 260.390 123.534,277.621 129.060,277.892 129.327 C 279.421 130.836,280.147 157.952,279.005 170.905 C 274.046 227.119,248.129 264.996,203.973 280.567 L 199.800 282.038 195.000 280.387 C 153.268 266.026,127.487 229.683,120.952 176.000 C 119.521 164.249,120.071 130.985,121.724 129.320 C 121.986 129.056,125.440 127.827,129.400 126.589 C 133.360 125.351,139.390 123.463,142.800 122.394 C 146.210 121.326,160.070 117.009,173.600 112.801 C 187.130 108.593,198.380 105.080,198.600 104.994 C 199.547 104.624,203.725 105.852,239.600 117.047 M197.400 118.402 C 196.674 118.717,189.823 120.876,183.200 122.877 C 181.770 123.309,180.150 123.816,179.600 124.005 C 179.050 124.194,176.710 124.915,174.400 125.608 C 172.090 126.300,169.210 127.197,168.000 127.600 C 166.790 128.003,163.910 128.900,161.600 129.592 C 159.290 130.285,156.950 131.008,156.400 131.200 C 155.850 131.392,153.510 132.115,151.200 132.808 C 148.890 133.500,146.010 134.397,144.800 134.800 C 143.590 135.203,140.710 136.098,138.400 136.787 C 132.101 138.668,132.555 138.323,131.972 141.673 C 131.286 145.615,131.264 171.871,131.942 177.400 C 132.668 183.318,133.674 189.683,134.407 193.000 C 134.602 193.880,134.972 195.590,135.230 196.800 C 135.488 198.010,135.836 199.450,136.003 200.000 C 136.170 200.550,136.535 201.810,136.814 202.800 C 137.845 206.462,139.554 211.517,140.837 214.700 C 141.037 215.195,141.360 216.005,141.555 216.500 C 142.700 219.400,147.578 228.877,149.122 231.200 C 149.487 231.750,149.991 232.581,150.242 233.047 C 153.545 239.187,171.221 257.200,173.943 257.200 C 174.158 257.200,174.393 257.335,174.467 257.500 C 174.827 258.312,183.880 263.362,189.000 265.607 C 190.100 266.090,191.540 266.721,192.200 267.009 C 199.670 270.276,202.073 269.844,215.894 262.742 C 237.989 251.388,255.052 229.438,262.023 203.400 C 264.836 192.895,265.714 188.188,267.201 175.636 C 268.204 167.175,267.471 139.575,266.220 138.709 C 265.989 138.549,264.270 137.952,262.400 137.384 C 260.530 136.815,258.550 136.196,258.000 136.007 C 257.450 135.818,255.110 135.087,252.800 134.383 C 250.490 133.678,247.610 132.778,246.400 132.384 C 245.190 131.989,242.310 131.097,240.000 130.400 C 237.690 129.703,234.810 128.803,233.600 128.400 C 232.390 127.997,229.510 127.100,227.200 126.408 C 224.890 125.715,222.550 124.992,222.000 124.800 C 221.450 124.608,219.110 123.885,216.800 123.192 C 214.490 122.500,211.610 121.603,210.400 121.200 C 201.338 118.180,199.047 117.686,197.400 118.402 M193.371 141.029 C 194.438 142.095,193.852 144.629,192.226 145.978 C 191.207 146.824,191.470 147.600,192.776 147.600 C 194.107 147.600,194.782 148.312,193.951 148.839 C 193.063 149.401,189.354 149.268,188.846 148.655 C 188.492 148.229,188.833 147.560,190.408 145.590 C 192.739 142.674,192.747 142.245,190.469 142.077 C 188.841 141.957,188.154 141.127,189.300 140.665 C 190.405 140.219,192.773 140.430,193.371 141.029 M200.371 141.454 C 201.542 142.943,201.560 147.240,200.400 148.400 C 199.011 149.789,196.562 149.441,195.660 147.726 C 193.444 143.517,197.620 137.957,200.371 141.454 M206.835 141.235 C 207.872 142.272,207.624 143.550,205.984 145.620 C 204.694 147.250,204.784 147.600,206.496 147.600 C 207.388 147.600,207.627 147.763,207.524 148.300 C 207.412 148.881,206.948 149.000,204.800 149.000 C 201.494 149.000,201.331 148.450,203.781 145.579 C 206.105 142.857,206.163 142.000,204.024 142.000 C 202.356 142.000,201.525 141.346,202.449 140.761 C 203.502 140.094,205.959 140.359,206.835 141.235 M212.000 145.042 C 212.000 148.768,211.979 148.853,211.100 148.728 C 210.267 148.610,210.191 148.369,210.083 145.500 C 209.970 142.506,209.933 142.400,208.983 142.400 C 207.623 142.400,207.754 141.819,209.281 141.079 C 211.564 139.974,212.000 140.609,212.000 145.042 M197.190 143.026 C 196.267 145.454,197.224 148.244,198.677 147.359 C 199.547 146.828,199.899 143.442,199.174 142.569 C 198.452 141.698,197.622 141.889,197.190 143.026 M168.867 157.926 C 174.880 161.405,181.451 165.199,183.470 166.358 C 188.051 168.988,187.920 168.184,185.075 176.170 L 182.663 182.940 184.031 184.105 C 187.437 187.004,187.495 187.026,191.468 186.880 L 195.136 186.745 195.268 181.813 C 195.382 177.557,195.509 176.761,196.199 176.000 C 199.581 172.268,208.800 173.778,208.800 178.064 C 208.800 178.480,209.205 178.975,209.700 179.164 C 212.345 180.176,212.954 182.906,210.600 183.200 C 209.040 183.395,208.997 183.443,208.877 185.100 L 208.754 186.800 212.344 186.800 C 214.319 186.800,216.174 186.884,216.467 186.986 C 216.760 187.088,218.066 186.212,219.369 185.040 L 221.738 182.909 219.374 176.061 C 216.533 167.829,215.651 169.382,226.800 162.979 C 231.310 160.388,237.610 156.769,240.800 154.936 C 249.126 150.152,254.375 149.985,251.196 154.606 C 250.496 155.624,249.985 156.496,250.061 156.544 C 250.138 156.593,250.738 156.809,251.396 157.024 C 253.356 157.667,253.254 160.292,251.221 161.529 L 250.063 162.233 251.213 162.742 C 253.334 163.680,253.295 166.530,251.150 167.277 L 249.929 167.703 251.170 168.304 C 253.546 169.455,252.867 172.817,250.195 173.133 L 249.069 173.266 250.235 174.197 L 251.400 175.129 249.719 176.731 C 248.296 178.086,248.126 178.407,248.619 178.815 C 249.904 179.882,248.595 182.000,246.649 182.000 C 245.950 182.000,245.934 182.067,246.477 182.700 C 246.808 183.085,247.200 183.614,247.348 183.876 C 247.736 184.561,246.032 185.999,244.825 186.006 C 244.237 186.010,243.996 186.138,244.259 186.306 C 245.395 187.034,244.727 189.600,243.401 189.600 C 243.125 189.600,242.797 190.117,242.670 190.748 C 242.530 191.451,242.123 191.979,241.620 192.111 C 241.123 192.241,240.800 192.655,240.800 193.163 C 240.800 193.623,240.616 194.000,240.390 194.000 C 240.165 194.000,239.807 194.455,239.596 195.010 C 239.385 195.566,238.926 196.130,238.575 196.265 C 238.225 196.399,237.777 196.935,237.579 197.455 C 237.382 197.975,236.898 198.400,236.505 198.400 C 236.111 198.400,235.612 198.792,235.395 199.270 C 235.178 199.749,234.325 200.486,233.500 200.909 C 232.675 201.332,232.000 201.841,232.000 202.039 C 232.000 202.238,231.685 202.406,231.300 202.413 C 230.915 202.420,230.258 202.684,229.841 203.000 C 229.424 203.316,228.917 203.473,228.716 203.348 C 228.514 203.223,228.027 203.414,227.633 203.770 C 227.231 204.134,226.625 204.308,226.253 204.165 C 225.888 204.025,225.324 204.131,225.000 204.400 C 224.676 204.669,223.979 204.781,223.451 204.649 C 222.845 204.497,222.312 204.625,222.004 204.995 C 221.624 205.453,221.333 205.485,220.690 205.141 C 220.036 204.791,219.767 204.831,219.402 205.330 C 219.126 205.706,218.611 205.876,218.125 205.749 C 216.257 205.260,216.640 206.913,218.848 208.869 C 220.239 210.101,221.374 211.601,222.179 213.269 L 223.400 215.800 227.996 216.000 C 233.296 216.231,233.717 216.576,231.520 218.892 C 230.350 220.126,229.678 220.404,225.600 221.345 C 219.648 222.719,219.921 222.752,216.628 220.262 C 212.980 217.503,213.124 217.575,210.577 217.229 C 207.887 216.864,207.856 216.682,211.115 220.347 C 215.763 225.574,216.054 225.997,215.921 227.356 C 215.809 228.506,215.674 228.609,214.138 228.721 C 212.741 228.823,212.436 229.003,212.222 229.854 C 211.990 230.780,211.838 230.843,210.427 230.604 C 209.114 230.383,208.790 230.478,208.251 231.249 C 207.645 232.113,207.560 232.126,206.313 231.536 C 205.093 230.958,204.937 230.971,203.904 231.734 L 202.800 232.550 201.634 231.689 C 200.527 230.870,200.405 230.859,199.179 231.470 C 197.940 232.088,197.863 232.079,197.219 231.225 C 196.665 230.490,196.306 230.381,195.152 230.598 C 193.925 230.828,193.700 230.738,193.298 229.855 C 192.946 229.082,192.490 228.822,191.320 228.725 C 188.383 228.483,188.876 226.609,193.188 221.624 C 197.271 216.903,197.380 216.665,195.300 217.018 C 192.159 217.552,191.265 217.959,188.433 220.147 C 185.043 222.766,185.180 222.749,179.255 221.314 C 175.283 220.352,174.538 220.036,173.345 218.808 C 171.120 216.518,171.506 216.217,176.837 216.088 L 181.464 215.976 182.632 213.488 C 183.336 211.988,184.578 210.269,185.758 209.159 C 187.700 207.332,188.457 204.059,186.576 205.620 C 186.101 206.014,185.836 205.975,185.226 205.423 C 184.638 204.891,184.288 204.832,183.675 205.160 C 183.074 205.482,182.767 205.442,182.396 204.995 C 182.088 204.625,181.555 204.497,180.949 204.649 C 180.421 204.781,179.731 204.674,179.414 204.412 C 179.097 204.149,178.495 204.043,178.076 204.176 C 177.625 204.319,177.106 204.169,176.807 203.809 C 176.529 203.474,175.868 203.200,175.338 203.200 C 174.809 203.200,174.276 202.941,174.154 202.625 C 174.029 202.298,173.665 202.154,173.309 202.290 C 172.965 202.422,172.481 202.276,172.233 201.965 C 171.690 201.285,170.458 200.464,169.500 200.142 C 169.115 200.012,168.800 199.641,168.800 199.316 C 168.800 198.991,168.455 198.635,168.034 198.525 C 167.613 198.415,167.159 197.891,167.026 197.362 C 166.893 196.833,166.514 196.400,166.182 196.400 C 165.851 196.400,165.423 195.988,165.232 195.484 C 165.040 194.980,164.595 194.327,164.242 194.035 C 163.889 193.742,163.600 193.250,163.600 192.941 C 163.600 192.633,163.150 192.209,162.600 192.000 C 162.015 191.778,161.600 191.303,161.600 190.856 C 161.600 190.436,161.132 189.785,160.560 189.411 C 159.705 188.851,159.549 188.487,159.680 187.365 C 159.798 186.358,159.685 186.000,159.251 186.000 C 157.583 186.000,156.727 183.986,157.862 182.731 C 158.482 182.047,158.475 182.000,157.751 182.000 C 155.776 182.000,154.499 179.880,155.816 178.787 C 156.355 178.340,156.255 178.130,155.016 177.109 C 153.382 175.762,153.223 174.761,154.500 173.870 L 155.400 173.242 154.482 173.221 C 151.205 173.146,150.913 168.121,154.175 167.959 C 154.744 167.931,154.584 167.785,153.660 167.490 C 151.333 166.746,150.915 163.916,152.970 162.816 L 153.962 162.285 152.754 161.157 C 151.101 159.613,151.221 157.603,153.000 157.023 C 153.660 156.808,154.252 156.603,154.315 156.567 C 154.379 156.532,153.865 155.593,153.174 154.480 C 151.585 151.924,151.812 151.600,155.191 151.600 L 157.934 151.600 168.867 157.926 M169.943 215.883 C 170.220 216.379,170.143 216.715,169.663 217.105 C 169.077 217.581,169.098 217.597,169.839 217.241 C 170.660 216.846,171.600 217.292,171.600 218.077 C 171.600 218.693,166.034 222.099,165.415 221.861 C 164.569 221.537,164.645 220.904,165.600 220.307 C 166.040 220.032,166.400 219.661,166.400 219.481 C 166.400 219.302,166.000 219.435,165.511 219.777 C 162.835 221.651,163.656 219.514,166.494 217.218 C 169.276 214.968,169.403 214.918,169.943 215.883 M238.541 217.246 C 241.516 219.722,241.819 220.346,239.905 220.049 C 239.743 220.024,239.653 220.400,239.705 220.885 C 239.825 222.000,238.739 222.282,237.830 221.372 C 237.462 221.005,237.046 220.820,236.905 220.962 C 236.764 221.103,237.042 221.494,237.524 221.832 C 238.723 222.672,238.698 223.762,237.486 223.457 C 235.928 223.066,231.200 220.810,231.200 220.458 C 231.200 218.884,233.446 218.659,234.975 220.080 C 235.402 220.476,235.940 220.800,236.171 220.800 C 236.402 220.800,235.890 220.194,235.033 219.453 C 233.946 218.514,233.552 217.903,233.731 217.436 C 234.002 216.729,235.440 217.165,236.078 218.148 C 236.231 218.384,236.500 218.434,236.675 218.258 C 236.850 218.083,236.725 217.779,236.397 217.581 C 234.963 216.720,234.787 216.499,235.029 215.868 C 235.420 214.850,235.878 215.029,238.541 217.246 M172.993 219.592 C 173.748 220.427,173.300 221.600,172.226 221.600 C 171.964 221.600,171.029 221.948,170.148 222.374 C 165.689 224.529,164.993 223.361,169.096 220.608 C 172.210 218.519,172.058 218.559,172.993 219.592 M194.800 246.406 C 195.630 246.951,194.658 247.585,192.980 247.594 C 191.304 247.602,190.799 248.250,190.806 250.380 C 190.817 253.717,193.201 254.591,193.600 251.404 C 193.868 249.263,195.042 248.951,195.412 250.923 C 196.241 255.340,190.361 256.711,189.193 252.373 C 188.012 247.988,191.521 244.254,194.800 246.406 M198.910 246.567 C 199.222 246.880,199.709 247.960,199.991 248.967 C 200.656 251.345,201.004 251.278,201.775 248.626 C 202.453 246.294,203.600 245.421,204.622 246.459 C 205.204 247.051,205.531 253.541,205.020 254.367 C 204.447 255.294,203.600 253.972,203.600 252.151 C 203.600 249.981,203.078 249.893,202.460 251.959 C 201.677 254.572,199.605 254.326,199.051 251.553 C 198.706 249.832,198.000 250.523,198.000 252.581 C 198.000 254.193,197.307 255.173,196.639 254.506 C 196.069 253.936,196.399 247.258,197.029 246.629 C 197.805 245.853,198.183 245.840,198.910 246.567 M211.551 246.361 C 212.412 246.907,211.687 247.600,210.256 247.600 C 206.839 247.600,206.976 252.942,210.402 253.267 C 212.495 253.466,212.279 254.565,210.115 254.722 C 206.567 254.980,204.585 250.285,206.924 247.165 C 207.749 246.064,210.364 245.610,211.551 246.361 M115.100 291.010 C 116.105 291.326,116.367 293.782,115.610 295.774 L 115.220 296.800 109.790 296.800 C 101.388 296.800,101.000 297.215,101.000 306.200 C 101.000 314.858,102.931 316.994,108.613 314.620 L 110.000 314.041 110.000 309.394 C 110.000 303.289,110.054 303.200,113.806 303.200 C 117.488 303.200,117.262 302.530,117.113 313.000 L 117.000 321.000 114.473 321.120 C 112.009 321.237,111.934 321.210,111.509 320.083 L 111.072 318.926 108.507 320.263 C 101.463 323.935,94.988 320.723,93.583 312.860 C 91.518 301.306,94.277 293.150,101.000 290.933 C 102.677 290.380,113.284 290.438,115.100 291.010 M231.867 290.841 L 234.400 291.282 234.360 292.941 C 234.270 296.701,234.469 296.574,228.291 296.800 C 220.503 297.085,218.985 299.500,220.321 309.484 C 221.031 314.794,221.305 314.982,228.457 315.068 C 234.812 315.146,234.615 315.060,234.926 317.870 C 235.266 320.944,232.768 321.838,224.675 321.538 C 216.074 321.220,213.025 317.830,212.517 308.019 C 211.763 293.452,217.519 288.342,231.867 290.841 M256.154 290.966 C 263.169 293.077,266.202 306.641,261.814 316.272 C 258.622 323.278,243.204 323.774,239.520 316.989 C 235.876 310.280,237.262 295.205,241.779 292.413 C 245.003 290.420,252.000 289.716,256.154 290.966 M137.813 291.614 C 138.948 292.869,147.335 320.467,146.703 320.868 C 145.937 321.355,140.621 321.261,140.113 320.753 C 139.867 320.507,139.249 318.797,138.741 316.953 L 137.815 313.600 133.122 313.600 C 127.775 313.600,128.174 313.338,127.019 317.600 C 126.631 319.030,126.131 320.425,125.908 320.700 C 125.412 321.311,119.368 321.395,118.998 320.796 C 118.617 320.181,127.230 292.518,128.089 291.596 C 129.213 290.391,136.718 290.404,137.813 291.614 M160.771 291.185 C 161.790 291.730,162.145 292.788,164.378 301.949 C 165.471 306.432,166.420 310.154,166.487 310.221 C 166.554 310.288,167.557 306.350,168.716 301.471 C 171.339 290.425,171.047 290.800,177.022 290.800 C 183.347 290.800,182.842 289.387,183.644 309.348 C 184.157 322.120,184.419 321.185,180.324 321.194 C 176.894 321.202,177.159 322.040,176.644 309.579 C 176.400 303.685,176.084 298.748,175.942 298.607 C 175.800 298.466,174.749 302.231,173.606 306.974 C 171.081 317.457,171.162 317.348,166.161 317.137 C 161.793 316.952,162.021 317.301,159.393 306.774 C 158.130 301.712,157.046 297.622,156.984 297.685 C 156.922 297.748,156.675 302.920,156.435 309.177 C 155.939 322.101,156.240 321.251,152.200 321.103 L 149.400 321.000 149.524 312.600 C 149.759 296.778,150.099 292.411,151.164 291.548 C 152.199 290.711,159.378 290.439,160.771 291.185 M208.300 291.052 C 209.090 291.264,209.200 291.553,209.200 293.414 C 209.200 296.967,209.527 296.800,202.571 296.800 C 195.487 296.800,195.466 296.811,195.680 300.512 L 195.800 302.600 201.384 302.712 C 207.496 302.834,207.584 302.870,207.594 305.267 C 207.605 308.029,207.665 308.000,201.990 308.000 C 195.382 308.000,195.600 307.895,195.600 311.069 C 195.600 315.304,195.424 315.200,202.571 315.200 C 209.527 315.200,209.200 315.033,209.200 318.586 C 209.200 321.259,209.445 321.188,200.284 321.195 C 188.416 321.204,188.400 321.183,188.400 306.000 C 188.400 290.816,188.379 290.843,200.200 290.823 C 204.160 290.816,207.805 290.919,208.300 291.052 M274.567 291.043 C 275.530 291.412,275.530 320.588,274.567 320.957 C 273.425 321.395,268.578 321.218,268.080 320.720 C 267.725 320.365,267.600 316.542,267.600 306.000 C 267.600 295.458,267.725 291.635,268.080 291.280 C 268.578 290.782,273.425 290.605,274.567 291.043 M288.757 291.455 C 289.328 291.855,291.508 295.793,294.346 301.553 L 299.000 310.995 299.107 301.103 L 299.214 291.212 300.124 290.983 C 300.624 290.858,302.106 290.810,303.417 290.878 L 305.800 291.000 305.909 305.400 C 306.038 322.344,306.365 321.200,301.400 321.200 C 299.212 321.200,298.281 321.026,297.654 320.500 C 296.882 319.853,288.000 302.449,288.000 301.585 C 288.000 301.373,287.865 301.200,287.700 301.200 C 287.535 301.199,287.454 305.445,287.521 310.634 C 287.664 321.827,287.868 321.277,283.638 321.116 L 280.600 321.000 280.495 306.705 C 280.370 289.769,280.084 290.800,284.911 290.800 C 286.960 290.800,288.099 290.994,288.757 291.455 M247.768 296.858 C 244.185 298.597,244.280 313.523,247.885 315.166 C 253.008 317.500,255.741 314.311,255.741 306.000 C 255.741 297.699,252.855 294.390,247.768 296.858 M132.623 297.243 C 132.141 298.619,130.005 306.651,130.003 307.100 C 130.001 307.456,130.865 307.600,133.000 307.600 C 134.650 307.600,135.998 307.465,135.996 307.300 C 135.988 306.772,133.214 297.080,133.012 296.879 C 132.906 296.773,132.731 296.936,132.623 297.243 " stroke="none" fill="#f35434" fill-rule="evenodd"></path><path id="path2" d="M199.131 68.100 C 198.823 68.595,197.985 70.176,197.270 71.613 C 195.860 74.445,194.385 75.200,190.262 75.200 C 186.833 75.200,186.791 75.770,189.989 78.988 L 192.876 81.896 192.650 84.248 C 192.525 85.542,192.310 87.545,192.173 88.700 C 191.870 91.241,191.653 91.231,196.248 88.903 L 199.992 87.006 203.712 88.903 C 208.263 91.223,208.134 91.223,207.841 88.900 C 207.709 87.855,207.489 85.857,207.352 84.459 L 207.102 81.918 210.000 79.000 C 213.209 75.769,213.170 75.200,209.738 75.200 C 208.905 75.200,207.270 74.978,206.104 74.707 L 203.985 74.215 202.174 70.707 C 200.223 66.930,199.987 66.727,199.131 68.100 M165.328 75.300 C 165.152 75.575,164.285 77.240,163.402 79.000 C 161.606 82.578,161.758 82.498,155.700 83.061 C 152.369 83.370,152.433 83.886,156.250 87.455 C 158.195 89.275,159.194 90.486,159.003 90.795 C 158.838 91.062,158.552 92.297,158.367 93.540 C 158.182 94.783,157.917 96.364,157.777 97.053 C 157.397 98.928,157.928 98.920,161.624 96.992 C 165.777 94.825,166.014 94.820,169.752 96.800 C 173.761 98.924,173.929 98.903,173.690 96.300 C 173.584 95.145,173.341 93.897,173.149 93.526 C 172.068 91.438,172.687 89.815,175.632 87.026 C 178.924 83.906,178.937 83.396,175.732 83.047 C 174.449 82.907,172.590 82.688,171.600 82.561 L 169.800 82.329 168.000 78.573 C 166.169 74.752,165.894 74.414,165.328 75.300 M232.800 78.574 L 231.000 82.329 229.200 82.561 C 228.210 82.688,226.362 82.906,225.094 83.045 C 221.905 83.394,221.910 83.688,225.151 86.951 C 228.191 90.011,228.539 90.978,227.633 93.840 C 226.132 98.578,226.724 99.091,231.048 96.800 C 234.821 94.801,234.993 94.806,239.283 97.021 C 243.251 99.071,243.646 98.946,242.867 95.886 C 242.630 94.959,242.330 93.195,242.198 91.967 L 241.959 89.735 244.996 87.017 C 248.560 83.827,248.575 83.495,245.168 83.108 C 238.899 82.397,239.308 82.628,237.237 78.631 C 234.891 74.105,234.942 74.105,232.800 78.574 M132.559 91.703 C 131.584 93.684,129.524 97.409,129.164 97.843 C 128.953 98.097,127.750 98.416,126.490 98.552 C 119.687 99.283,119.749 99.186,123.631 103.011 C 126.797 106.130,126.647 105.495,125.651 111.600 C 125.155 114.637,125.407 114.706,129.495 112.653 C 133.577 110.603,133.525 110.601,137.944 112.874 C 141.384 114.644,141.995 114.495,141.267 112.066 C 141.010 111.209,140.800 109.952,140.800 109.272 C 140.800 108.593,140.584 107.564,140.320 106.985 C 139.860 105.975,139.977 105.805,143.212 102.789 C 145.516 100.640,146.396 99.584,145.992 99.452 C 145.009 99.132,142.741 98.779,140.109 98.537 L 137.618 98.308 135.709 94.556 C 133.706 90.620,133.281 90.235,132.559 91.703 M263.764 93.700 C 262.933 95.295,262.065 96.987,261.836 97.459 C 261.502 98.149,260.944 98.365,259.010 98.555 C 252.172 99.227,252.097 99.287,254.855 101.869 C 259.104 105.845,258.846 105.438,258.578 107.728 C 258.445 108.868,258.170 110.322,257.968 110.960 C 256.841 114.511,257.494 114.764,261.994 112.517 L 265.710 110.662 269.355 112.537 C 273.857 114.853,273.724 114.864,273.437 112.200 C 273.307 110.990,273.093 108.996,272.961 107.769 L 272.722 105.538 275.661 102.807 C 277.566 101.036,278.459 99.943,278.200 99.699 C 277.817 99.339,273.508 98.498,271.014 98.296 C 269.944 98.209,269.651 97.840,268.014 94.515 C 265.822 90.063,265.675 90.035,263.764 93.700 M152.800 152.426 C 152.800 153.626,155.322 156.800,156.275 156.800 C 156.564 156.800,156.800 156.977,156.800 157.193 C 156.800 157.409,155.888 157.565,154.773 157.540 C 151.570 157.468,150.953 159.774,153.805 161.153 C 154.462 161.470,155.313 161.881,155.695 162.065 C 156.077 162.249,156.662 162.400,156.995 162.400 C 157.328 162.400,157.600 162.599,157.600 162.842 C 157.600 163.124,156.983 163.218,155.900 163.103 C 153.628 162.862,151.919 163.799,152.083 165.196 C 152.204 166.235,156.090 167.984,158.300 167.995 C 158.795 167.998,159.200 168.204,159.200 168.454 C 159.200 168.767,158.354 168.847,156.471 168.712 C 152.487 168.427,150.814 169.946,152.926 171.930 C 153.572 172.537,154.357 172.800,155.526 172.800 C 156.447 172.800,157.200 172.980,157.200 173.200 C 157.200 173.420,156.885 173.604,156.500 173.609 C 156.115 173.614,155.352 173.962,154.805 174.382 L 153.810 175.147 154.743 176.139 C 155.256 176.686,156.133 177.247,156.691 177.387 L 157.706 177.642 156.853 178.436 C 154.913 180.243,156.166 181.600,159.774 181.600 C 160.998 181.600,162.000 181.780,162.000 182.000 C 162.000 182.220,161.308 182.400,160.462 182.400 C 158.982 182.400,157.600 183.300,157.600 184.264 C 157.600 185.182,159.468 185.693,161.353 185.291 C 163.991 184.728,163.512 185.652,160.700 186.551 C 159.108 187.060,160.286 189.364,161.920 188.937 C 162.720 188.728,162.776 188.819,162.549 189.954 C 162.313 191.136,162.364 191.200,163.550 191.200 C 164.888 191.200,165.101 191.528,164.300 192.358 C 163.897 192.775,163.975 192.995,164.700 193.487 C 165.195 193.823,165.600 194.440,165.600 194.859 C 165.600 195.302,166.017 195.778,166.600 196.000 C 167.150 196.209,167.600 196.655,167.600 196.990 C 167.600 197.326,167.773 197.600,167.984 197.600 C 168.195 197.600,169.034 198.320,169.848 199.200 C 170.662 200.080,171.660 200.800,172.064 200.800 C 172.469 200.800,172.800 200.980,172.800 201.200 C 172.800 201.420,173.141 201.600,173.557 201.600 C 173.974 201.600,174.425 201.889,174.561 202.242 C 174.733 202.690,175.097 202.812,175.762 202.645 C 176.426 202.479,176.791 202.600,176.962 203.045 C 177.132 203.489,177.498 203.612,178.158 203.446 C 178.756 203.296,179.291 203.427,179.600 203.800 C 179.911 204.175,180.443 204.304,181.051 204.151 C 181.581 204.019,182.277 204.132,182.605 204.404 C 183.078 204.796,183.325 204.794,183.808 204.394 C 184.304 203.981,184.558 204.019,185.200 204.600 C 185.852 205.190,186.090 205.223,186.609 204.792 C 188.809 202.967,188.687 207.251,186.483 209.206 C 185.260 210.292,184.109 211.881,183.200 213.739 L 181.800 216.600 177.300 216.713 C 174.825 216.775,172.800 216.989,172.800 217.188 C 172.800 218.348,175.193 219.757,178.600 220.603 C 185.245 222.252,184.628 222.317,188.219 219.586 C 189.968 218.254,191.760 217.098,192.200 217.017 C 192.640 216.935,194.049 216.657,195.331 216.399 C 198.993 215.660,198.933 215.844,193.430 222.193 C 189.567 226.648,189.247 227.663,191.596 228.000 C 192.629 228.148,193.132 228.493,193.531 229.329 C 193.921 230.144,194.256 230.382,194.736 230.184 C 196.334 229.523,196.764 229.553,197.268 230.361 C 197.818 231.242,198.979 231.481,199.400 230.800 C 199.769 230.202,201.033 230.317,201.600 231.000 C 202.251 231.784,203.159 231.761,204.070 230.937 C 204.672 230.392,204.986 230.356,205.820 230.737 C 207.181 231.357,208.000 231.321,208.000 230.643 C 208.000 229.863,209.028 229.554,210.172 229.990 C 211.183 230.374,211.635 230.075,212.125 228.700 C 212.299 228.213,212.804 228.000,213.787 228.000 C 216.348 228.000,215.765 226.472,211.194 221.200 C 207.011 216.377,206.627 215.751,208.100 216.152 C 208.595 216.287,209.923 216.510,211.050 216.648 C 212.766 216.858,213.645 217.315,216.434 219.449 C 220.330 222.431,219.399 222.290,225.400 220.809 C 229.199 219.871,230.388 219.408,231.100 218.590 C 232.538 216.937,232.271 216.800,227.625 216.800 L 223.250 216.800 221.813 213.852 C 220.782 211.738,219.804 210.422,218.353 209.199 C 216.438 207.584,216.345 207.418,216.601 206.047 C 216.939 204.240,216.944 204.235,218.017 204.809 C 218.706 205.178,218.969 205.173,219.208 204.787 C 219.397 204.481,219.904 204.389,220.533 204.547 C 221.118 204.694,221.667 204.615,221.824 204.361 C 221.974 204.118,222.570 204.014,223.149 204.129 C 223.729 204.244,224.531 204.095,224.939 203.797 C 225.345 203.499,225.926 203.350,226.229 203.466 C 226.532 203.583,227.051 203.406,227.383 203.074 C 227.714 202.743,228.324 202.560,228.738 202.668 C 229.192 202.787,229.586 202.614,229.732 202.232 C 229.866 201.885,230.223 201.600,230.526 201.600 C 231.338 201.600,233.600 200.401,233.600 199.971 C 233.600 199.767,233.874 199.600,234.210 199.600 C 234.545 199.600,234.991 199.150,235.200 198.600 C 235.409 198.050,235.855 197.600,236.190 197.600 C 236.526 197.600,236.800 197.326,236.800 196.990 C 236.800 196.655,237.250 196.209,237.800 196.000 C 238.350 195.791,238.800 195.373,238.800 195.072 C 238.800 194.771,239.157 194.201,239.594 193.806 C 240.141 193.311,240.314 192.795,240.150 192.144 C 239.939 191.304,240.050 191.200,241.157 191.200 C 242.133 191.200,242.400 191.028,242.400 190.400 C 242.400 189.960,242.220 189.600,242.000 189.600 C 241.780 189.600,241.600 189.400,241.600 189.157 C 241.600 188.896,241.973 188.807,242.503 188.940 C 244.445 189.427,245.131 187.412,243.298 186.605 C 242.804 186.388,242.400 186.073,242.400 185.905 C 242.400 185.737,242.130 185.600,241.800 185.600 C 241.470 185.600,241.200 185.401,241.200 185.157 C 241.200 184.885,241.470 184.833,241.900 185.022 C 244.554 186.188,247.301 185.219,246.476 183.407 C 246.096 182.574,245.739 182.400,244.409 182.400 C 243.524 182.400,242.800 182.220,242.800 182.000 C 242.800 181.780,243.770 181.600,244.956 181.600 C 248.571 181.600,250.068 179.135,247.020 178.200 C 246.293 177.977,246.347 177.895,247.490 177.474 C 248.199 177.213,249.189 176.587,249.690 176.082 L 250.600 175.165 249.600 174.391 C 249.050 173.966,248.375 173.614,248.100 173.609 C 246.768 173.585,247.807 172.800,249.171 172.800 C 250.392 172.800,250.927 172.565,251.571 171.746 C 253.312 169.533,251.943 168.351,248.021 168.679 C 246.031 168.846,245.200 168.781,245.200 168.458 C 245.200 168.206,245.642 168.000,246.181 168.000 C 246.721 168.000,247.576 167.832,248.081 167.628 C 248.587 167.423,249.482 167.153,250.072 167.027 C 253.867 166.219,252.722 162.610,248.817 163.073 C 246.298 163.371,246.179 162.758,248.616 162.038 C 253.335 160.645,253.731 156.932,249.100 157.503 C 247.339 157.720,247.136 157.208,248.700 156.491 C 249.800 155.987,252.136 152.669,251.698 152.232 C 250.680 151.214,246.732 152.077,243.332 154.060 C 241.389 155.194,236.380 158.095,232.200 160.509 C 220.903 167.031,217.912 168.781,217.663 169.012 C 217.500 169.165,219.076 173.904,219.619 174.895 C 219.829 175.277,220.000 175.922,220.000 176.328 C 220.000 176.734,220.122 177.189,220.271 177.338 C 220.420 177.487,220.960 178.822,221.471 180.304 L 222.399 183.000 219.900 185.293 L 217.400 187.587 213.180 187.593 C 208.491 187.601,208.000 187.384,208.000 185.307 C 208.000 184.492,207.767 183.886,207.400 183.745 C 206.645 183.455,206.646 182.905,207.402 181.454 C 209.451 177.527,207.054 174.400,201.994 174.400 C 196.953 174.400,196.000 175.575,196.000 181.790 C 196.000 185.029,195.841 186.799,195.520 187.120 C 194.844 187.796,187.436 187.772,186.729 187.092 C 186.438 186.812,185.345 185.891,184.300 185.044 C 183.255 184.197,182.400 183.189,182.400 182.804 C 182.400 182.150,184.419 175.969,185.211 174.200 C 185.408 173.760,185.869 172.447,186.236 171.282 C 187.046 168.714,187.907 169.490,177.849 163.727 C 173.696 161.347,169.646 159.017,168.849 158.549 C 158.007 152.185,157.621 152.000,155.163 152.000 C 153.757 152.000,152.800 152.173,152.800 152.426 M102.343 291.180 C 96.080 292.330,93.647 296.462,93.614 306.000 C 93.590 313.120,95.092 317.953,97.920 319.858 C 100.819 321.811,106.284 321.456,109.714 319.093 C 111.032 318.185,111.888 318.397,112.069 319.676 C 112.188 320.514,112.406 320.600,114.400 320.600 L 116.600 320.600 116.600 312.400 L 116.600 304.200 113.600 304.200 L 110.600 304.200 110.488 309.261 C 110.366 314.801,110.375 314.782,107.754 315.530 C 102.347 317.073,100.000 314.155,100.000 305.890 C 100.000 297.593,101.697 295.919,109.994 296.028 L 115.000 296.093 115.244 294.347 C 115.544 292.205,115.389 291.744,114.272 291.448 C 112.673 291.024,104.226 290.835,102.343 291.180 M221.561 291.205 C 214.882 292.335,211.748 299.334,213.190 309.900 C 214.402 318.785,217.011 321.000,226.208 320.951 C 233.163 320.914,234.402 320.508,234.394 318.269 C 234.384 315.659,234.347 315.643,228.792 315.726 C 220.590 315.848,219.800 314.993,219.800 306.000 C 219.800 297.087,220.596 296.200,228.600 296.200 L 233.400 296.200 233.619 294.293 C 233.740 293.244,233.716 292.187,233.566 291.944 C 233.033 291.082,225.155 290.597,221.561 291.205 M246.361 291.179 C 244.502 291.520,242.201 292.529,241.406 293.352 C 236.796 298.126,236.839 313.939,241.476 318.718 C 244.493 321.827,255.015 321.924,259.147 318.880 C 263.804 315.449,264.534 299.528,260.279 294.195 C 258.182 291.567,251.795 290.183,246.361 291.179 M128.761 291.713 C 128.121 292.201,127.208 294.565,125.637 299.800 C 124.467 303.696,123.213 307.803,122.400 310.400 C 122.021 311.610,121.306 313.950,120.812 315.600 C 120.317 317.250,119.764 318.987,119.583 319.460 C 119.118 320.674,119.389 320.800,122.473 320.800 C 125.542 320.800,125.662 320.678,126.803 316.400 C 127.850 312.477,127.344 312.762,133.038 312.888 L 138.082 313.000 138.583 314.600 C 138.859 315.480,139.311 317.010,139.589 318.000 C 139.867 318.990,140.157 320.025,140.235 320.300 C 140.409 320.920,145.829 321.000,146.207 320.388 C 146.347 320.162,146.087 318.767,145.629 317.288 C 145.171 315.810,144.412 313.340,143.943 311.800 C 143.473 310.260,142.779 308.010,142.400 306.800 C 142.021 305.590,141.301 303.250,140.800 301.600 C 140.299 299.950,139.554 297.598,139.145 296.373 C 138.735 295.149,138.400 293.875,138.400 293.543 C 138.400 291.500,130.906 290.077,128.761 291.713 M151.622 291.978 C 150.533 293.067,149.937 301.484,149.823 317.400 L 149.800 320.600 152.600 320.600 L 155.400 320.600 155.651 316.400 C 155.789 314.090,155.924 309.107,155.951 305.326 C 155.978 301.545,156.176 297.990,156.390 297.426 C 156.829 296.272,157.600 296.046,157.600 297.072 C 157.600 297.441,157.776 298.296,157.991 298.972 C 158.206 299.647,159.118 303.260,160.019 307.000 C 162.410 316.934,162.551 317.119,167.439 316.713 C 170.116 316.491,170.909 315.795,171.539 313.108 C 171.811 311.949,172.200 310.370,172.403 309.600 C 172.606 308.830,173.353 305.770,174.062 302.800 C 176.153 294.043,176.582 294.175,176.985 303.700 C 177.155 307.715,177.408 313.160,177.547 315.800 L 177.800 320.600 180.560 320.600 L 183.321 320.600 183.235 314.600 C 183.188 311.300,182.986 306.350,182.787 303.600 C 182.587 300.850,182.418 297.295,182.412 295.700 C 182.395 291.565,181.958 291.200,177.022 291.200 C 171.864 291.200,171.715 291.355,170.049 298.400 C 168.759 303.859,168.413 305.265,167.632 308.246 C 167.394 309.152,167.200 310.367,167.200 310.946 C 167.200 311.526,167.056 312.000,166.880 312.000 C 166.248 312.000,165.600 311.022,165.600 310.066 C 165.600 309.531,165.406 308.352,165.168 307.446 C 164.503 304.909,164.133 303.417,162.779 297.800 C 161.196 291.237,161.159 291.200,156.156 291.200 C 152.969 291.200,152.282 291.318,151.622 291.978 M191.837 292.150 C 188.963 293.890,188.836 294.469,188.817 305.916 C 188.793 320.519,189.027 320.833,199.854 320.753 C 208.599 320.687,208.600 320.687,208.600 318.196 L 208.600 316.200 202.560 316.000 C 194.984 315.749,195.132 315.846,195.285 311.239 L 195.400 307.800 201.095 307.689 C 207.416 307.566,207.473 307.536,207.131 304.548 L 207.000 303.400 201.100 303.289 L 195.200 303.179 195.200 300.238 C 195.200 296.223,195.161 296.245,202.560 296.000 L 208.600 295.800 208.600 293.804 C 208.600 291.311,208.602 291.312,199.800 291.249 C 193.736 291.206,193.318 291.254,191.837 292.150 M268.589 291.684 C 268.479 291.970,268.437 298.593,268.495 306.402 L 268.600 320.600 271.400 320.600 L 274.200 320.600 274.200 306.000 L 274.200 291.400 271.495 291.282 C 269.554 291.197,268.733 291.310,268.589 291.684 M281.664 292.131 C 280.795 293.057,280.790 293.150,280.895 306.831 L 281.000 320.600 283.800 320.600 L 286.600 320.600 286.600 309.700 C 286.600 303.705,286.713 298.800,286.851 298.800 C 287.263 298.800,287.835 299.703,288.499 301.400 C 290.070 305.414,297.375 319.677,298.133 320.208 C 299.366 321.072,303.665 321.002,304.765 320.100 C 305.611 319.406,305.618 319.274,305.510 305.400 L 305.400 291.400 302.700 291.282 L 300.000 291.163 300.000 302.015 C 300.000 310.168,299.883 312.828,299.529 312.710 C 298.955 312.518,299.401 313.367,293.870 301.955 C 291.033 296.102,288.937 292.261,288.357 291.855 C 286.835 290.789,282.768 290.957,281.664 292.131 M133.831 296.898 C 133.988 297.391,134.462 299.146,134.886 300.798 C 136.167 305.797,136.266 306.166,136.570 307.115 C 136.863 308.030,136.861 308.031,133.132 307.915 C 128.820 307.782,129.008 308.124,130.436 303.000 C 130.865 301.460,131.414 299.480,131.655 298.600 C 131.897 297.720,132.157 296.775,132.235 296.500 C 132.467 295.673,133.526 295.937,133.831 296.898 M253.835 296.659 C 257.325 298.946,257.325 313.054,253.835 315.341 C 252.652 316.116,248.943 316.230,247.425 315.538 C 243.941 313.951,243.496 299.964,246.831 296.857 C 248.015 295.754,252.270 295.634,253.835 296.659 " stroke="none" fill="#fbf7f5" fill-rule="evenodd"></path><path id="path3" d="M197.522 70.142 C 195.451 74.311,195.876 74.036,190.600 74.622 C 185.797 75.156,185.680 75.688,189.600 79.172 C 192.615 81.851,193.037 83.078,192.031 86.240 C 190.388 91.409,191.127 91.948,196.298 89.355 L 199.995 87.501 203.722 89.351 C 209.050 91.995,208.637 92.518,207.767 84.224 L 207.517 81.848 210.459 79.157 C 214.031 75.890,213.981 75.160,210.159 74.742 C 204.302 74.102,204.672 74.319,202.526 70.253 C 200.029 65.522,199.819 65.518,197.522 70.142 M202.174 70.707 L 203.985 74.215 206.104 74.707 C 207.270 74.978,208.905 75.200,209.738 75.200 C 213.170 75.200,213.209 75.769,210.000 79.000 L 207.102 81.918 207.352 84.459 C 207.489 85.857,207.709 87.855,207.841 88.900 C 208.134 91.223,208.263 91.223,203.712 88.903 L 199.992 87.006 196.248 88.903 C 191.653 91.231,191.870 91.241,192.173 88.700 C 192.310 87.545,192.525 85.542,192.650 84.248 L 192.876 81.896 189.989 78.988 C 186.791 75.770,186.833 75.200,190.262 75.200 C 194.385 75.200,195.860 74.445,197.270 71.613 C 199.981 66.166,199.841 66.191,202.174 70.707 M163.328 78.076 C 161.172 82.241,161.676 81.947,155.503 82.649 C 151.804 83.070,151.783 83.559,155.308 87.123 L 158.352 90.200 157.977 92.800 C 157.770 94.230,157.490 96.142,157.354 97.048 C 156.991 99.475,157.588 99.529,161.733 97.444 C 166.178 95.208,165.587 95.212,169.736 97.400 C 174.395 99.858,174.485 99.839,174.157 96.500 C 174.011 95.015,173.736 93.497,173.546 93.126 C 172.629 91.341,173.132 90.223,176.200 87.226 C 180.134 83.385,180.114 83.162,175.800 82.642 C 174.920 82.537,173.300 82.326,172.200 82.175 L 170.200 81.901 168.384 78.253 C 166.001 73.464,165.721 73.454,163.328 78.076 M232.538 78.138 L 230.654 81.931 228.827 82.162 C 227.822 82.289,225.969 82.506,224.710 82.644 C 220.978 83.053,220.955 83.597,224.526 86.943 C 227.705 89.923,228.257 91.173,227.254 93.126 C 227.064 93.497,226.789 95.015,226.643 96.500 C 226.314 99.846,226.427 99.869,231.107 97.400 C 235.251 95.214,234.608 95.210,239.125 97.452 C 243.271 99.509,243.834 99.442,243.464 96.935 C 243.340 96.091,243.060 94.230,242.843 92.800 L 242.448 90.200 245.492 87.123 C 249.017 83.559,248.996 83.070,245.297 82.649 C 239.262 81.962,239.702 82.217,237.621 78.201 C 235.155 73.442,234.873 73.438,232.538 78.138 M168.000 78.573 L 169.800 82.329 171.600 82.561 C 172.590 82.688,174.449 82.907,175.732 83.047 C 178.937 83.396,178.924 83.906,175.632 87.026 C 172.687 89.815,172.068 91.438,173.149 93.526 C 173.341 93.897,173.584 95.145,173.690 96.300 C 173.929 98.903,173.761 98.924,169.752 96.800 C 166.014 94.820,165.777 94.825,161.624 96.992 C 157.928 98.920,157.397 98.928,157.777 97.053 C 157.917 96.364,158.182 94.783,158.367 93.540 C 158.552 92.297,158.838 91.062,159.003 90.795 C 159.194 90.486,158.195 89.275,156.250 87.455 C 152.433 83.886,152.369 83.370,155.700 83.061 C 161.758 82.498,161.606 82.578,163.402 79.000 C 166.043 73.738,165.698 73.770,168.000 78.573 M237.237 78.631 C 239.308 82.628,238.899 82.397,245.168 83.108 C 248.575 83.495,248.560 83.827,244.996 87.017 L 241.959 89.735 242.198 91.967 C 242.330 93.195,242.630 94.959,242.867 95.886 C 243.646 98.946,243.251 99.071,239.283 97.021 C 234.993 94.806,234.821 94.801,231.048 96.800 C 226.724 99.091,226.132 98.578,227.633 93.840 C 228.539 90.978,228.191 90.011,225.151 86.951 C 221.910 83.688,221.905 83.394,225.094 83.045 C 226.362 82.906,228.210 82.688,229.200 82.561 L 231.000 82.329 232.800 78.574 C 234.942 74.105,234.891 74.105,237.237 78.631 M132.682 90.727 C 132.355 91.097,131.357 92.863,130.464 94.652 L 128.839 97.904 126.320 98.125 C 123.479 98.374,120.500 98.967,120.105 99.361 C 119.961 99.506,121.228 101.018,122.921 102.721 C 126.100 105.918,126.456 106.720,125.656 108.874 C 125.467 109.383,125.188 110.925,125.036 112.300 C 124.692 115.415,124.979 115.474,129.400 113.200 C 133.255 111.217,133.454 111.218,137.483 113.246 C 141.344 115.190,142.191 115.122,141.862 112.897 C 141.740 112.073,141.454 110.152,141.227 108.627 L 140.813 105.855 143.858 102.982 C 145.533 101.403,146.824 99.872,146.727 99.582 C 146.527 98.982,142.636 98.064,140.129 98.026 C 138.148 97.995,137.639 97.458,135.631 93.281 C 134.139 90.178,133.587 89.700,132.682 90.727 M265.353 90.314 C 265.107 90.472,264.179 92.002,263.290 93.715 C 261.157 97.823,260.988 97.996,259.051 98.026 C 256.348 98.068,252.613 98.995,252.485 99.656 C 252.422 99.982,253.694 101.516,255.313 103.064 L 258.255 105.880 257.927 108.240 C 257.058 114.492,257.061 114.372,257.778 114.647 C 258.196 114.807,259.658 114.273,261.591 113.253 C 265.474 111.206,265.830 111.206,269.883 113.246 C 274.317 115.478,275.199 114.567,273.569 109.440 C 272.714 106.752,273.016 106.002,276.279 102.721 C 277.972 101.018,279.239 99.506,279.095 99.361 C 278.727 98.994,275.872 98.409,272.832 98.079 L 270.264 97.800 268.510 94.400 C 266.553 90.607,266.005 89.898,265.353 90.314 M135.709 94.556 L 137.618 98.308 140.109 98.537 C 142.741 98.779,145.009 99.132,145.992 99.452 C 146.396 99.584,145.516 100.640,143.212 102.789 C 139.977 105.805,139.860 105.975,140.320 106.985 C 140.584 107.564,140.800 108.593,140.800 109.272 C 140.800 109.952,141.010 111.209,141.267 112.066 C 141.995 114.495,141.384 114.644,137.944 112.874 C 133.525 110.601,133.577 110.603,129.495 112.653 C 125.407 114.706,125.155 114.637,125.651 111.600 C 126.647 105.495,126.797 106.130,123.631 103.011 C 119.749 99.186,119.687 99.283,126.490 98.552 C 127.750 98.416,128.953 98.097,129.164 97.843 C 129.524 97.409,131.584 93.684,132.559 91.703 C 133.281 90.235,133.706 90.620,135.709 94.556 M268.014 94.515 C 269.651 97.840,269.944 98.209,271.014 98.296 C 273.508 98.498,277.817 99.339,278.200 99.699 C 278.459 99.943,277.566 101.036,275.661 102.807 L 272.722 105.538 272.961 107.769 C 273.093 108.996,273.307 110.990,273.437 112.200 C 273.724 114.864,273.857 114.853,269.355 112.537 L 265.710 110.662 261.994 112.517 C 257.494 114.764,256.841 114.511,257.968 110.960 C 258.170 110.322,258.445 108.868,258.578 107.728 C 258.846 105.438,259.104 105.845,254.855 101.869 C 252.097 99.287,252.172 99.227,259.010 98.555 C 260.944 98.365,261.502 98.149,261.836 97.459 C 265.588 89.718,265.640 89.693,268.014 94.515 M152.182 152.029 C 152.036 152.265,152.482 153.368,153.174 154.480 C 153.865 155.593,154.379 156.532,154.315 156.567 C 154.252 156.603,153.660 156.808,153.000 157.023 C 151.221 157.603,151.101 159.613,152.754 161.157 L 153.962 162.285 152.970 162.816 C 150.915 163.916,151.333 166.746,153.660 167.490 C 154.584 167.785,154.744 167.931,154.175 167.959 C 150.913 168.121,151.205 173.146,154.482 173.221 L 155.400 173.242 154.500 173.870 C 153.223 174.761,153.382 175.762,155.016 177.109 C 156.255 178.130,156.355 178.340,155.816 178.787 C 154.499 179.880,155.776 182.000,157.751 182.000 C 158.475 182.000,158.482 182.047,157.862 182.731 C 156.727 183.986,157.583 186.000,159.251 186.000 C 159.685 186.000,159.798 186.358,159.680 187.365 C 159.549 188.487,159.705 188.851,160.560 189.411 C 161.132 189.785,161.600 190.436,161.600 190.856 C 161.600 191.303,162.015 191.778,162.600 192.000 C 163.150 192.209,163.600 192.633,163.600 192.941 C 163.600 193.250,163.889 193.742,164.242 194.035 C 164.595 194.327,165.040 194.980,165.232 195.484 C 165.423 195.988,165.851 196.400,166.182 196.400 C 166.514 196.400,166.893 196.833,167.026 197.362 C 167.159 197.891,167.613 198.415,168.034 198.525 C 168.455 198.635,168.800 198.991,168.800 199.316 C 168.800 199.641,169.115 200.012,169.500 200.142 C 170.458 200.464,171.690 201.285,172.233 201.965 C 172.481 202.276,172.965 202.422,173.309 202.290 C 173.665 202.154,174.029 202.298,174.154 202.625 C 174.276 202.941,174.809 203.200,175.338 203.200 C 175.868 203.200,176.529 203.474,176.807 203.809 C 177.106 204.169,177.625 204.319,178.076 204.176 C 178.495 204.043,179.097 204.149,179.414 204.412 C 179.731 204.674,180.421 204.781,180.949 204.649 C 181.555 204.497,182.088 204.625,182.396 204.995 C 182.767 205.442,183.074 205.482,183.675 205.160 C 184.288 204.832,184.638 204.891,185.226 205.423 C 185.836 205.975,186.101 206.014,186.576 205.620 C 188.457 204.059,187.700 207.332,185.758 209.159 C 184.578 210.269,183.336 211.988,182.632 213.488 L 181.464 215.976 176.837 216.088 C 171.506 216.217,171.120 216.518,173.345 218.808 C 174.538 220.036,175.283 220.352,179.255 221.314 C 185.180 222.749,185.043 222.766,188.433 220.147 C 191.265 217.959,192.159 217.552,195.300 217.018 C 197.380 216.665,197.271 216.903,193.188 221.624 C 188.876 226.609,188.383 228.483,191.320 228.725 C 192.490 228.822,192.946 229.082,193.298 229.855 C 193.700 230.738,193.925 230.828,195.152 230.598 C 196.306 230.381,196.665 230.490,197.219 231.225 C 197.863 232.079,197.940 232.088,199.179 231.470 C 200.405 230.859,200.527 230.870,201.634 231.689 L 202.800 232.550 203.904 231.734 C 204.937 230.971,205.093 230.958,206.313 231.536 C 207.560 232.126,207.645 232.113,208.251 231.249 C 208.790 230.478,209.114 230.383,210.427 230.604 C 211.838 230.843,211.990 230.780,212.222 229.854 C 212.436 229.003,212.741 228.823,214.138 228.721 C 215.674 228.609,215.809 228.506,215.921 227.356 C 216.054 225.997,215.763 225.574,211.115 220.347 C 207.856 216.682,207.887 216.864,210.577 217.229 C 213.124 217.575,212.980 217.503,216.628 220.262 C 219.921 222.752,219.648 222.719,225.600 221.345 C 229.678 220.404,230.350 220.126,231.520 218.892 C 233.717 216.576,233.296 216.231,227.996 216.000 L 223.400 215.800 222.179 213.269 C 221.374 211.601,220.239 210.101,218.848 208.869 C 216.640 206.913,216.257 205.260,218.125 205.749 C 218.611 205.876,219.126 205.706,219.402 205.330 C 219.767 204.831,220.036 204.791,220.690 205.141 C 221.333 205.485,221.624 205.453,222.004 204.995 C 222.312 204.625,222.845 204.497,223.451 204.649 C 223.979 204.781,224.676 204.669,225.000 204.400 C 225.324 204.131,225.888 204.025,226.253 204.165 C 226.625 204.308,227.231 204.134,227.633 203.770 C 228.027 203.414,228.514 203.223,228.716 203.348 C 228.917 203.473,229.424 203.316,229.841 203.000 C 230.258 202.684,230.915 202.420,231.300 202.413 C 231.685 202.406,232.000 202.238,232.000 202.039 C 232.000 201.841,232.675 201.332,233.500 200.909 C 234.325 200.486,235.178 199.749,235.395 199.270 C 235.612 198.792,236.111 198.400,236.505 198.400 C 236.898 198.400,237.382 197.975,237.579 197.455 C 237.777 196.935,238.225 196.399,238.575 196.265 C 238.926 196.130,239.385 195.566,239.596 195.010 C 239.807 194.455,240.165 194.000,240.390 194.000 C 240.616 194.000,240.800 193.623,240.800 193.163 C 240.800 192.655,241.123 192.241,241.620 192.111 C 242.123 191.979,242.530 191.451,242.670 190.748 C 242.797 190.117,243.125 189.600,243.401 189.600 C 244.727 189.600,245.395 187.034,244.259 186.306 C 243.996 186.138,244.237 186.010,244.825 186.006 C 246.032 185.999,247.736 184.561,247.348 183.876 C 247.200 183.614,246.808 183.085,246.477 182.700 C 245.934 182.067,245.950 182.000,246.649 182.000 C 248.595 182.000,249.904 179.882,248.619 178.815 C 248.126 178.407,248.296 178.086,249.719 176.731 L 251.400 175.129 250.235 174.197 L 249.069 173.266 250.195 173.133 C 252.867 172.817,253.546 169.455,251.170 168.304 L 249.929 167.703 251.150 167.277 C 253.295 166.530,253.334 163.680,251.213 162.742 L 250.063 162.233 251.221 161.529 C 253.254 160.292,253.356 157.667,251.396 157.024 C 250.738 156.809,250.138 156.593,250.061 156.544 C 249.985 156.496,250.496 155.624,251.196 154.606 C 254.375 149.985,249.126 150.152,240.800 154.936 C 237.610 156.769,231.310 160.388,226.800 162.979 C 215.651 169.382,216.533 167.829,219.374 176.061 L 221.738 182.909 219.369 185.040 C 218.066 186.212,216.760 187.088,216.467 186.986 C 216.174 186.884,214.319 186.800,212.344 186.800 L 208.754 186.800 208.877 185.100 C 208.997 183.443,209.040 183.395,210.600 183.200 C 212.954 182.906,212.345 180.176,209.700 179.164 C 209.205 178.975,208.800 178.480,208.800 178.064 C 208.800 173.778,199.581 172.268,196.199 176.000 C 195.509 176.761,195.382 177.557,195.268 181.813 L 195.136 186.745 191.468 186.880 C 187.495 187.026,187.437 187.004,184.031 184.105 L 182.663 182.940 185.075 176.170 C 187.920 168.184,188.051 168.988,183.470 166.358 C 181.451 165.199,174.880 161.405,168.867 157.926 L 157.934 151.600 155.191 151.600 C 153.669 151.600,152.329 151.791,152.182 152.029 M162.463 154.849 C 165.178 156.416,168.052 158.081,168.849 158.549 C 169.646 159.017,173.696 161.347,177.849 163.727 C 187.907 169.490,187.046 168.714,186.236 171.282 C 185.869 172.447,185.408 173.760,185.211 174.200 C 184.419 175.969,182.400 182.150,182.400 182.804 C 182.400 183.189,183.255 184.197,184.300 185.044 C 185.345 185.891,186.438 186.812,186.729 187.092 C 187.436 187.772,194.844 187.796,195.520 187.120 C 195.841 186.799,196.000 185.029,196.000 181.790 C 196.000 175.575,196.953 174.400,201.994 174.400 C 207.054 174.400,209.451 177.527,207.402 181.454 C 206.646 182.905,206.645 183.455,207.400 183.745 C 207.767 183.886,208.000 184.492,208.000 185.307 C 208.000 187.384,208.491 187.601,213.180 187.593 L 217.400 187.587 219.900 185.293 L 222.399 183.000 221.471 180.304 C 220.960 178.822,220.420 177.487,220.271 177.338 C 220.122 177.189,220.000 176.734,220.000 176.328 C 220.000 175.922,219.829 175.277,219.619 174.895 C 219.076 173.904,217.500 169.165,217.663 169.012 C 217.912 168.781,220.903 167.031,232.200 160.509 C 236.380 158.095,241.389 155.194,243.332 154.060 C 246.732 152.077,250.680 151.214,251.698 152.232 C 252.136 152.669,249.800 155.987,248.700 156.491 C 247.136 157.208,247.339 157.720,249.100 157.503 C 253.731 156.932,253.335 160.645,248.616 162.038 C 246.179 162.758,246.298 163.371,248.817 163.073 C 252.722 162.610,253.867 166.219,250.072 167.027 C 249.482 167.153,248.587 167.423,248.081 167.628 C 247.576 167.832,246.721 168.000,246.181 168.000 C 245.642 168.000,245.200 168.206,245.200 168.458 C 245.200 168.781,246.031 168.846,248.021 168.679 C 251.943 168.351,253.312 169.533,251.571 171.746 C 250.927 172.565,250.392 172.800,249.171 172.800 C 247.807 172.800,246.768 173.585,248.100 173.609 C 248.375 173.614,249.050 173.966,249.600 174.391 L 250.600 175.165 249.690 176.082 C 249.189 176.587,248.199 177.213,247.490 177.474 C 246.347 177.895,246.293 177.977,247.020 178.200 C 250.068 179.135,248.571 181.600,244.956 181.600 C 243.770 181.600,242.800 181.780,242.800 182.000 C 242.800 182.220,243.524 182.400,244.409 182.400 C 245.739 182.400,246.096 182.574,246.476 183.407 C 247.301 185.219,244.554 186.188,241.900 185.022 C 241.470 184.833,241.200 184.885,241.200 185.157 C 241.200 185.401,241.470 185.600,241.800 185.600 C 242.130 185.600,242.400 185.737,242.400 185.905 C 242.400 186.073,242.804 186.388,243.298 186.605 C 245.131 187.412,244.445 189.427,242.503 188.940 C 241.973 188.807,241.600 188.896,241.600 189.157 C 241.600 189.400,241.780 189.600,242.000 189.600 C 242.220 189.600,242.400 189.960,242.400 190.400 C 242.400 191.028,242.133 191.200,241.157 191.200 C 240.050 191.200,239.939 191.304,240.150 192.144 C 240.314 192.795,240.141 193.311,239.594 193.806 C 239.157 194.201,238.800 194.771,238.800 195.072 C 238.800 195.373,238.350 195.791,237.800 196.000 C 237.250 196.209,236.800 196.655,236.800 196.990 C 236.800 197.326,236.526 197.600,236.190 197.600 C 235.855 197.600,235.409 198.050,235.200 198.600 C 234.991 199.150,234.545 199.600,234.210 199.600 C 233.874 199.600,233.600 199.767,233.600 199.971 C 233.600 200.401,231.338 201.600,230.526 201.600 C 230.223 201.600,229.866 201.885,229.732 202.232 C 229.586 202.614,229.192 202.787,228.738 202.668 C 228.324 202.560,227.714 202.743,227.383 203.074 C 227.051 203.406,226.532 203.583,226.229 203.466 C 225.926 203.350,225.345 203.499,224.939 203.797 C 224.531 204.095,223.729 204.244,223.149 204.129 C 222.570 204.014,221.974 204.118,221.824 204.361 C 221.667 204.615,221.118 204.694,220.533 204.547 C 219.904 204.389,219.397 204.481,219.208 204.787 C 218.969 205.173,218.706 205.178,218.017 204.809 C 216.944 204.235,216.939 204.240,216.601 206.047 C 216.345 207.418,216.438 207.584,218.353 209.199 C 219.804 210.422,220.782 211.738,221.813 213.852 L 223.250 216.800 227.625 216.800 C 232.271 216.800,232.538 216.937,231.100 218.590 C 230.388 219.408,229.199 219.871,225.400 220.809 C 219.399 222.290,220.330 222.431,216.434 219.449 C 213.645 217.315,212.766 216.858,211.050 216.648 C 209.923 216.510,208.595 216.287,208.100 216.152 C 206.627 215.751,207.011 216.377,211.194 221.200 C 215.765 226.472,216.348 228.000,213.787 228.000 C 212.804 228.000,212.299 228.213,212.125 228.700 C 211.635 230.075,211.183 230.374,210.172 229.990 C 209.028 229.554,208.000 229.863,208.000 230.643 C 208.000 231.321,207.181 231.357,205.820 230.737 C 204.986 230.356,204.672 230.392,204.070 230.937 C 203.159 231.761,202.251 231.784,201.600 231.000 C 201.033 230.317,199.769 230.202,199.400 230.800 C 198.979 231.481,197.818 231.242,197.268 230.361 C 196.764 229.553,196.334 229.523,194.736 230.184 C 194.256 230.382,193.921 230.144,193.531 229.329 C 193.132 228.493,192.629 228.148,191.596 228.000 C 189.247 227.663,189.567 226.648,193.430 222.193 C 198.933 215.844,198.993 215.660,195.331 216.399 C 194.049 216.657,192.640 216.935,192.200 217.017 C 191.760 217.098,189.968 218.254,188.219 219.586 C 184.628 222.317,185.245 222.252,178.600 220.603 C 175.193 219.757,172.800 218.348,172.800 217.188 C 172.800 216.989,174.825 216.775,177.300 216.713 L 181.800 216.600 183.200 213.739 C 184.109 211.881,185.260 210.292,186.483 209.206 C 188.687 207.251,188.809 202.967,186.609 204.792 C 186.090 205.223,185.852 205.190,185.200 204.600 C 184.558 204.019,184.304 203.981,183.808 204.394 C 183.325 204.794,183.078 204.796,182.605 204.404 C 182.277 204.132,181.581 204.019,181.051 204.151 C 180.443 204.304,179.911 204.175,179.600 203.800 C 179.291 203.427,178.756 203.296,178.158 203.446 C 177.498 203.612,177.132 203.489,176.962 203.045 C 176.791 202.600,176.426 202.479,175.762 202.645 C 175.097 202.812,174.733 202.690,174.561 202.242 C 174.425 201.889,173.974 201.600,173.557 201.600 C 173.141 201.600,172.800 201.420,172.800 201.200 C 172.800 200.980,172.469 200.800,172.064 200.800 C 171.660 200.800,170.662 200.080,169.848 199.200 C 169.034 198.320,168.195 197.600,167.984 197.600 C 167.773 197.600,167.600 197.326,167.600 196.990 C 167.600 196.655,167.150 196.209,166.600 196.000 C 166.017 195.778,165.600 195.302,165.600 194.859 C 165.600 194.440,165.195 193.823,164.700 193.487 C 163.975 192.995,163.897 192.775,164.300 192.358 C 165.101 191.528,164.888 191.200,163.550 191.200 C 162.364 191.200,162.313 191.136,162.549 189.954 C 162.776 188.819,162.720 188.728,161.920 188.937 C 160.286 189.364,159.108 187.060,160.700 186.551 C 163.512 185.652,163.991 184.728,161.353 185.291 C 159.468 185.693,157.600 185.182,157.600 184.264 C 157.600 183.300,158.982 182.400,160.462 182.400 C 161.308 182.400,162.000 182.220,162.000 182.000 C 162.000 181.780,160.998 181.600,159.774 181.600 C 156.166 181.600,154.913 180.243,156.853 178.436 L 157.706 177.642 156.691 177.387 C 156.133 177.247,155.256 176.686,154.743 176.139 L 153.810 175.147 154.805 174.382 C 155.352 173.962,156.115 173.614,156.500 173.609 C 156.885 173.604,157.200 173.420,157.200 173.200 C 157.200 172.980,156.447 172.800,155.526 172.800 C 154.357 172.800,153.572 172.537,152.926 171.930 C 150.814 169.946,152.487 168.427,156.471 168.712 C 158.354 168.847,159.200 168.767,159.200 168.454 C 159.200 168.204,158.795 167.998,158.300 167.995 C 156.090 167.984,152.204 166.235,152.083 165.196 C 151.919 163.799,153.628 162.862,155.900 163.103 C 156.983 163.218,157.600 163.124,157.600 162.842 C 157.600 162.599,157.328 162.400,156.995 162.400 C 156.662 162.400,156.077 162.249,155.695 162.065 C 155.313 161.881,154.462 161.470,153.805 161.153 C 150.953 159.774,151.570 157.468,154.773 157.540 C 155.888 157.565,156.800 157.409,156.800 157.193 C 156.800 156.977,156.564 156.800,156.275 156.800 C 155.986 156.800,155.288 156.305,154.724 155.700 C 150.184 150.833,154.652 150.342,162.463 154.849 M166.494 217.218 C 163.656 219.514,162.835 221.651,165.511 219.777 C 166.000 219.435,166.400 219.302,166.400 219.481 C 166.400 219.661,166.040 220.032,165.600 220.307 C 164.645 220.904,164.569 221.537,165.415 221.861 C 166.034 222.099,171.600 218.693,171.600 218.077 C 171.600 217.292,170.660 216.846,169.839 217.241 C 169.098 217.597,169.077 217.581,169.663 217.105 C 170.143 216.715,170.220 216.379,169.943 215.883 C 169.403 214.918,169.276 214.968,166.494 217.218 M235.029 215.868 C 234.787 216.499,234.963 216.720,236.397 217.581 C 236.725 217.779,236.850 218.083,236.675 218.258 C 236.500 218.434,236.231 218.384,236.078 218.148 C 235.440 217.165,234.002 216.729,233.731 217.436 C 233.552 217.903,233.946 218.514,235.033 219.453 C 235.890 220.194,236.402 220.800,236.171 220.800 C 235.940 220.800,235.402 220.476,234.975 220.080 C 233.446 218.659,231.200 218.884,231.200 220.458 C 231.200 220.810,235.928 223.066,237.486 223.457 C 238.698 223.762,238.723 222.672,237.524 221.832 C 237.042 221.494,236.764 221.103,236.905 220.962 C 237.046 220.820,237.462 221.005,237.830 221.372 C 238.739 222.282,239.825 222.000,239.705 220.885 C 239.653 220.400,239.743 220.024,239.905 220.049 C 241.819 220.346,241.516 219.722,238.541 217.246 C 235.878 215.029,235.420 214.850,235.029 215.868 M169.096 220.608 C 164.993 223.361,165.689 224.529,170.148 222.374 C 171.029 221.948,171.964 221.600,172.226 221.600 C 173.300 221.600,173.748 220.427,172.993 219.592 C 172.058 218.559,172.210 218.519,169.096 220.608 M101.000 290.933 C 94.277 293.150,91.518 301.306,93.583 312.860 C 94.988 320.723,101.463 323.935,108.507 320.263 L 111.072 318.926 111.509 320.083 C 111.934 321.210,112.009 321.237,114.473 321.120 L 117.000 321.000 117.113 313.000 C 117.262 302.530,117.488 303.200,113.806 303.200 C 110.054 303.200,110.000 303.289,110.000 309.394 L 110.000 314.041 108.613 314.620 C 102.931 316.994,101.000 314.858,101.000 306.200 C 101.000 297.215,101.388 296.800,109.790 296.800 L 115.220 296.800 115.610 295.774 C 116.367 293.782,116.105 291.326,115.100 291.010 C 113.284 290.438,102.677 290.380,101.000 290.933 M219.792 291.121 C 214.169 293.065,212.004 298.095,212.517 308.019 C 213.025 317.830,216.074 321.220,224.675 321.538 C 232.768 321.838,235.266 320.944,234.926 317.870 C 234.615 315.060,234.812 315.146,228.457 315.068 C 221.305 314.982,221.031 314.794,220.321 309.484 C 218.985 299.500,220.503 297.085,228.291 296.800 C 234.469 296.574,234.270 296.701,234.360 292.941 L 234.400 291.282 231.867 290.841 C 228.005 290.168,222.153 290.304,219.792 291.121 M244.930 290.976 C 239.614 292.638,237.942 295.671,237.672 304.141 C 237.257 317.141,239.947 321.161,249.313 321.537 C 259.879 321.961,263.594 317.920,263.594 306.000 C 263.594 297.185,261.280 292.509,256.154 290.966 C 253.809 290.261,247.199 290.266,244.930 290.976 M114.272 291.448 C 115.389 291.744,115.544 292.205,115.244 294.347 L 115.000 296.093 109.994 296.028 C 101.697 295.919,100.000 297.593,100.000 305.890 C 100.000 314.155,102.347 317.073,107.754 315.530 C 110.375 314.782,110.366 314.801,110.488 309.261 L 110.600 304.200 113.600 304.200 L 116.600 304.200 116.600 312.400 L 116.600 320.600 114.400 320.600 C 112.406 320.600,112.188 320.514,112.069 319.676 C 111.888 318.397,111.032 318.185,109.714 319.093 C 106.284 321.456,100.819 321.811,97.920 319.858 C 92.784 316.399,91.897 299.662,96.556 294.125 C 98.956 291.273,108.289 289.863,114.272 291.448 M128.089 291.596 C 127.230 292.518,118.617 320.181,118.998 320.796 C 119.368 321.395,125.412 321.311,125.908 320.700 C 126.131 320.425,126.631 319.030,127.019 317.600 C 128.174 313.338,127.775 313.600,133.122 313.600 L 137.815 313.600 138.741 316.953 C 139.249 318.797,139.867 320.507,140.113 320.753 C 140.621 321.261,145.937 321.355,146.703 320.868 C 147.335 320.467,138.948 292.869,137.813 291.614 C 136.718 290.404,129.213 290.391,128.089 291.596 M151.164 291.548 C 150.099 292.411,149.759 296.778,149.524 312.600 L 149.400 321.000 152.200 321.103 C 156.240 321.251,155.939 322.101,156.435 309.177 C 156.675 302.920,156.922 297.748,156.984 297.685 C 157.046 297.622,158.130 301.712,159.393 306.774 C 162.021 317.301,161.793 316.952,166.161 317.137 C 171.162 317.348,171.081 317.457,173.606 306.974 C 174.749 302.231,175.800 298.466,175.942 298.607 C 176.084 298.748,176.400 303.685,176.644 309.579 C 177.159 322.040,176.894 321.202,180.324 321.194 C 184.419 321.185,184.157 322.120,183.644 309.348 C 182.842 289.387,183.347 290.800,177.022 290.800 C 171.047 290.800,171.339 290.425,168.716 301.471 C 167.557 306.350,166.554 310.288,166.487 310.221 C 166.420 310.154,165.471 306.432,164.378 301.949 C 162.145 292.788,161.790 291.730,160.771 291.185 C 159.378 290.439,152.199 290.711,151.164 291.548 M191.504 291.625 C 188.606 293.155,188.400 294.111,188.400 306.000 C 188.400 321.183,188.416 321.204,200.284 321.195 C 209.445 321.188,209.200 321.259,209.200 318.586 C 209.200 315.033,209.527 315.200,202.571 315.200 C 195.424 315.200,195.600 315.304,195.600 311.069 C 195.600 307.895,195.382 308.000,201.990 308.000 C 207.665 308.000,207.605 308.029,207.594 305.267 C 207.584 302.870,207.496 302.834,201.384 302.712 L 195.800 302.600 195.680 300.512 C 195.466 296.811,195.487 296.800,202.571 296.800 C 209.527 296.800,209.200 296.967,209.200 293.414 C 209.200 290.737,209.446 290.807,200.200 290.823 C 193.818 290.834,192.830 290.925,191.504 291.625 M230.146 291.173 C 233.749 291.551,233.917 291.701,233.619 294.293 L 233.400 296.200 228.600 296.200 C 220.596 296.200,219.800 297.087,219.800 306.000 C 219.800 314.993,220.590 315.848,228.792 315.726 C 234.347 315.643,234.384 315.659,234.394 318.269 C 234.409 322.300,219.733 322.163,216.112 318.098 C 211.869 313.337,211.842 298.670,216.067 293.959 C 218.495 291.251,222.789 290.402,230.146 291.173 M257.454 292.068 C 264.166 295.222,265.370 314.296,259.147 318.880 C 255.015 321.924,244.493 321.827,241.476 318.718 C 236.839 313.939,236.796 298.126,241.406 293.352 C 243.860 290.811,253.192 290.064,257.454 292.068 M268.080 291.280 C 267.725 291.635,267.600 295.458,267.600 306.000 C 267.600 316.542,267.725 320.365,268.080 320.720 C 268.578 321.218,273.425 321.395,274.567 320.957 C 275.530 320.588,275.530 291.412,274.567 291.043 C 273.425 290.605,268.578 290.782,268.080 291.280 M281.195 291.605 C 280.414 292.386,280.393 292.841,280.495 306.705 L 280.600 321.000 283.638 321.116 C 287.868 321.277,287.664 321.827,287.521 310.634 C 287.454 305.445,287.535 301.199,287.700 301.200 C 287.865 301.200,288.000 301.373,288.000 301.585 C 288.000 302.449,296.882 319.853,297.654 320.500 C 298.281 321.026,299.212 321.200,301.400 321.200 C 306.365 321.200,306.038 322.344,305.909 305.400 L 305.800 291.000 303.417 290.878 C 302.106 290.810,300.624 290.858,300.124 290.983 L 299.214 291.212 299.107 301.103 L 299.000 310.995 294.346 301.553 C 291.508 295.793,289.328 291.855,288.757 291.455 C 287.307 290.439,282.260 290.540,281.195 291.605 M137.474 292.070 C 137.983 292.548,138.400 293.211,138.400 293.543 C 138.400 293.875,138.735 295.149,139.145 296.373 C 139.554 297.598,140.299 299.950,140.800 301.600 C 141.301 303.250,142.021 305.590,142.400 306.800 C 142.779 308.010,143.473 310.260,143.943 311.800 C 144.412 313.340,145.171 315.810,145.629 317.288 C 146.087 318.767,146.347 320.162,146.207 320.388 C 145.829 321.000,140.409 320.920,140.235 320.300 C 140.157 320.025,139.867 318.990,139.589 318.000 C 139.311 317.010,138.859 315.480,138.583 314.600 L 138.082 313.000 133.038 312.888 C 127.344 312.762,127.850 312.477,126.803 316.400 C 125.662 320.678,125.542 320.800,122.473 320.800 C 119.389 320.800,119.118 320.674,119.583 319.460 C 119.764 318.987,120.317 317.250,120.812 315.600 C 121.306 313.950,122.021 311.610,122.400 310.400 C 123.213 307.803,124.467 303.696,125.637 299.800 C 127.208 294.565,128.121 292.201,128.761 291.713 C 129.970 290.790,136.392 291.053,137.474 292.070 M160.718 291.900 C 161.277 292.385,161.909 294.195,162.779 297.800 C 164.133 303.417,164.503 304.909,165.168 307.446 C 165.406 308.352,165.600 309.531,165.600 310.066 C 165.600 311.022,166.248 312.000,166.880 312.000 C 167.056 312.000,167.200 311.526,167.200 310.946 C 167.200 310.367,167.394 309.152,167.632 308.246 C 168.413 305.265,168.759 303.859,170.049 298.400 C 171.715 291.355,171.864 291.200,177.022 291.200 C 181.958 291.200,182.395 291.565,182.412 295.700 C 182.418 297.295,182.587 300.850,182.787 303.600 C 182.986 306.350,183.188 311.300,183.235 314.600 L 183.321 320.600 180.560 320.600 L 177.800 320.600 177.547 315.800 C 177.408 313.160,177.155 307.715,176.985 303.700 C 176.582 294.175,176.153 294.043,174.062 302.800 C 173.353 305.770,172.606 308.830,172.403 309.600 C 172.200 310.370,171.811 311.949,171.539 313.108 C 170.909 315.795,170.116 316.491,167.439 316.713 C 162.551 317.119,162.410 316.934,160.019 307.000 C 159.118 303.260,158.206 299.647,157.991 298.972 C 157.776 298.296,157.600 297.441,157.600 297.072 C 157.600 296.046,156.829 296.272,156.390 297.426 C 156.176 297.990,155.978 301.545,155.951 305.326 C 155.924 309.107,155.789 314.090,155.651 316.400 L 155.400 320.600 152.600 320.600 L 149.800 320.600 149.823 317.400 C 149.937 301.484,150.533 293.067,151.622 291.978 C 152.717 290.883,159.480 290.826,160.718 291.900 M207.400 291.551 C 208.539 291.795,208.600 291.910,208.600 293.804 L 208.600 295.800 202.560 296.000 C 195.161 296.245,195.200 296.223,195.200 300.238 L 195.200 303.179 201.100 303.289 L 207.000 303.400 207.131 304.548 C 207.473 307.536,207.416 307.566,201.095 307.689 L 195.400 307.800 195.285 311.239 C 195.132 315.846,194.984 315.749,202.560 316.000 L 208.600 316.200 208.600 318.196 C 208.600 320.687,208.599 320.687,199.854 320.753 C 189.027 320.833,188.793 320.519,188.817 305.916 C 188.841 291.458,189.054 291.173,199.800 291.249 C 203.320 291.274,206.740 291.410,207.400 291.551 M274.200 306.000 L 274.200 320.600 271.400 320.600 L 268.600 320.600 268.495 306.402 C 268.371 289.652,268.077 291.132,271.495 291.282 L 274.200 291.400 274.200 306.000 M288.357 291.855 C 288.937 292.261,291.033 296.102,293.870 301.955 C 299.401 313.367,298.955 312.518,299.529 312.710 C 299.883 312.828,300.000 310.168,300.000 302.015 L 300.000 291.163 302.700 291.282 L 305.400 291.400 305.510 305.400 C 305.618 319.274,305.611 319.406,304.765 320.100 C 303.665 321.002,299.366 321.072,298.133 320.208 C 297.375 319.677,290.070 305.414,288.499 301.400 C 287.835 299.703,287.263 298.800,286.851 298.800 C 286.713 298.800,286.600 303.705,286.600 309.700 L 286.600 320.600 283.800 320.600 L 281.000 320.600 280.895 306.831 C 280.790 293.150,280.795 293.057,281.664 292.131 C 282.768 290.957,286.835 290.789,288.357 291.855 M132.235 296.500 C 132.157 296.775,131.897 297.720,131.655 298.600 C 131.414 299.480,130.865 301.460,130.436 303.000 C 129.008 308.124,128.820 307.782,133.132 307.915 C 136.861 308.031,136.863 308.030,136.570 307.115 C 136.266 306.166,136.167 305.797,134.886 300.798 C 134.462 299.146,133.988 297.391,133.831 296.898 C 133.526 295.937,132.467 295.673,132.235 296.500 M246.831 296.857 C 243.496 299.964,243.941 313.951,247.425 315.538 C 248.943 316.230,252.652 316.116,253.835 315.341 C 257.325 313.054,257.325 298.946,253.835 296.659 C 252.270 295.634,248.015 295.754,246.831 296.857 M253.480 297.183 C 255.214 298.241,255.741 300.294,255.741 306.000 C 255.741 314.311,253.008 317.500,247.885 315.166 C 244.280 313.523,244.185 298.597,247.768 296.858 C 249.184 296.171,252.091 296.336,253.480 297.183 M134.599 302.036 C 135.365 304.766,135.993 307.135,135.996 307.300 C 135.998 307.465,134.650 307.600,133.000 307.600 C 130.865 307.600,130.001 307.456,130.003 307.100 C 130.005 306.651,132.141 298.619,132.623 297.243 C 132.939 296.343,133.133 296.814,134.599 302.036 " stroke="none" fill="#f49077" fill-rule="evenodd"></path><path id="path4" d="M198.600 104.994 C 198.380 105.080,187.130 108.593,173.600 112.801 C 160.070 117.009,146.210 121.326,142.800 122.394 C 139.390 123.463,133.360 125.351,129.400 126.589 C 125.440 127.827,121.986 129.056,121.724 129.320 C 120.071 130.985,119.521 164.249,120.952 176.000 C 127.487 229.683,153.268 266.026,195.000 280.387 L 199.800 282.038 203.973 280.567 C 248.129 264.996,274.046 227.119,279.005 170.905 C 280.147 157.952,279.421 130.836,277.892 129.327 C 277.345 128.788,202.621 105.373,200.400 105.044 C 199.630 104.931,198.820 104.908,198.600 104.994 M202.481 105.975 C 203.295 106.308,209.121 108.142,216.800 110.484 C 218.230 110.920,220.390 111.605,221.600 112.005 C 222.810 112.406,225.690 113.303,228.000 114.000 C 230.310 114.697,233.190 115.597,234.400 116.000 C 235.610 116.403,238.490 117.303,240.800 118.000 C 243.110 118.697,245.990 119.589,247.200 119.984 C 248.410 120.378,251.290 121.281,253.600 121.990 C 255.910 122.699,258.790 123.599,260.000 123.990 C 261.210 124.381,264.090 125.281,266.400 125.990 C 268.710 126.699,271.590 127.603,272.800 128.000 C 274.010 128.396,275.501 128.833,276.114 128.971 C 277.610 129.308,277.989 130.444,278.459 136.000 C 279.891 152.904,279.151 170.862,276.342 187.400 C 275.119 194.605,272.223 206.146,270.421 211.000 C 266.916 220.441,262.089 230.944,259.542 234.672 C 258.914 235.592,258.400 236.433,258.400 236.541 C 258.400 236.649,257.635 237.877,256.700 239.269 C 243.556 258.842,224.971 272.915,202.000 280.689 L 199.800 281.433 196.400 280.290 C 190.141 278.185,179.324 273.187,175.728 270.738 C 174.808 270.112,173.957 269.600,173.836 269.600 C 172.710 269.600,162.033 261.214,157.042 256.410 C 142.686 242.589,131.087 221.718,126.029 200.600 C 125.765 199.500,125.392 197.970,125.200 197.200 C 123.505 190.409,122.063 181.533,121.171 172.400 C 120.669 167.258,120.898 135.704,121.465 132.014 C 121.862 129.423,121.939 129.371,128.000 127.577 C 130.310 126.893,133.190 126.003,134.400 125.600 C 135.610 125.197,138.490 124.293,140.800 123.592 C 146.053 121.999,152.284 120.054,153.600 119.598 C 154.150 119.408,156.490 118.685,158.800 117.992 C 161.110 117.300,163.990 116.403,165.200 116.000 C 166.410 115.597,169.290 114.697,171.600 114.000 C 173.910 113.303,176.790 112.406,178.000 112.005 C 179.210 111.605,181.370 110.920,182.800 110.484 C 190.624 108.098,196.293 106.309,197.000 106.002 C 198.086 105.530,201.353 105.514,202.481 105.975 M195.400 118.383 C 194.300 118.771,191.510 119.678,189.200 120.399 C 186.890 121.121,184.010 122.021,182.800 122.400 C 181.590 122.779,179.250 123.500,177.600 124.003 C 175.950 124.506,173.070 125.405,171.200 126.000 C 169.330 126.595,166.450 127.494,164.800 127.997 C 163.150 128.500,160.810 129.221,159.600 129.600 C 158.390 129.979,155.510 130.879,153.200 131.600 C 150.890 132.321,148.010 133.221,146.800 133.600 C 145.590 133.979,143.250 134.701,141.600 135.204 C 132.403 138.011,132.249 138.082,131.633 139.809 C 130.851 142.002,130.762 174.136,131.524 179.200 C 132.668 186.799,132.841 187.890,133.245 190.000 C 133.476 191.210,133.822 192.920,134.013 193.800 C 134.204 194.680,134.572 196.390,134.830 197.600 C 135.088 198.810,135.436 200.250,135.603 200.800 C 135.770 201.350,136.134 202.610,136.411 203.600 C 137.660 208.061,140.175 214.984,142.042 219.101 C 144.217 223.898,147.862 230.692,149.714 233.400 C 161.078 250.017,177.226 262.608,195.000 268.711 C 200.354 270.550,201.592 270.266,213.752 264.413 C 226.530 258.262,237.088 249.655,245.679 238.383 C 247.540 235.941,250.400 231.701,250.400 231.384 C 250.400 231.241,250.742 230.643,251.160 230.056 C 252.143 228.675,256.428 220.333,257.353 218.000 C 257.745 217.010,258.301 215.660,258.589 215.000 C 259.810 212.202,261.624 206.929,262.786 202.800 C 263.065 201.810,263.430 200.550,263.597 200.000 C 264.351 197.518,266.028 188.912,266.753 183.800 C 267.854 176.033,267.998 173.099,267.968 158.979 C 267.933 141.759,267.616 138.404,265.978 137.907 C 265.440 137.744,263.380 137.095,261.400 136.464 C 259.420 135.833,256.450 134.905,254.800 134.400 C 253.150 133.895,250.270 132.995,248.400 132.400 C 246.530 131.805,243.650 130.906,242.000 130.403 C 240.350 129.900,238.010 129.176,236.800 128.794 C 235.590 128.412,232.710 127.519,230.400 126.810 C 228.090 126.101,225.210 125.204,224.000 124.816 C 222.790 124.428,220.450 123.701,218.800 123.200 C 217.150 122.699,214.810 121.972,213.600 121.584 C 212.390 121.196,209.510 120.304,207.200 119.602 C 204.890 118.900,202.587 118.162,202.081 117.963 C 200.677 117.409,197.624 117.601,195.400 118.383 M204.181 119.233 C 206.392 119.912,209.190 120.797,210.400 121.200 C 211.610 121.603,214.490 122.500,216.800 123.192 C 219.110 123.885,221.450 124.608,222.000 124.800 C 222.550 124.992,224.890 125.715,227.200 126.408 C 229.510 127.100,232.390 127.997,233.600 128.400 C 234.810 128.803,237.690 129.703,240.000 130.400 C 242.310 131.097,245.190 131.989,246.400 132.384 C 247.610 132.778,250.490 133.678,252.800 134.383 C 255.110 135.087,257.450 135.818,258.000 136.007 C 258.550 136.196,260.530 136.815,262.400 137.384 C 264.270 137.952,265.989 138.549,266.220 138.709 C 267.471 139.575,268.204 167.175,267.201 175.636 C 265.714 188.188,264.836 192.895,262.023 203.400 C 255.052 229.438,237.989 251.388,215.894 262.742 C 202.073 269.844,199.670 270.276,192.200 267.009 C 191.540 266.721,190.100 266.090,189.000 265.607 C 183.880 263.362,174.827 258.312,174.467 257.500 C 174.393 257.335,174.158 257.200,173.943 257.200 C 171.221 257.200,153.545 239.187,150.242 233.047 C 149.991 232.581,149.487 231.750,149.122 231.200 C 147.578 228.877,142.700 219.400,141.555 216.500 C 141.360 216.005,141.037 215.195,140.837 214.700 C 139.554 211.517,137.845 206.462,136.814 202.800 C 136.535 201.810,136.170 200.550,136.003 200.000 C 135.836 199.450,135.488 198.010,135.230 196.800 C 134.972 195.590,134.602 193.880,134.407 193.000 C 133.674 189.683,132.668 183.318,131.942 177.400 C 131.264 171.871,131.286 145.615,131.972 141.673 C 132.555 138.323,132.101 138.668,138.400 136.787 C 140.710 136.098,143.590 135.203,144.800 134.800 C 146.010 134.397,148.890 133.500,151.200 132.808 C 153.510 132.115,155.850 131.392,156.400 131.200 C 156.950 131.008,159.290 130.285,161.600 129.592 C 163.910 128.900,166.790 128.003,168.000 127.600 C 169.210 127.197,172.090 126.300,174.400 125.608 C 176.710 124.915,179.050 124.194,179.600 124.005 C 180.150 123.816,181.770 123.309,183.200 122.877 C 189.823 120.876,196.674 118.717,197.400 118.402 C 198.772 117.806,200.033 117.960,204.181 119.233 M189.300 140.665 C 188.154 141.127,188.841 141.957,190.469 142.077 C 192.747 142.245,192.739 142.674,190.408 145.590 C 188.833 147.560,188.492 148.229,188.846 148.655 C 189.354 149.268,193.063 149.401,193.951 148.839 C 194.782 148.312,194.107 147.600,192.776 147.600 C 191.470 147.600,191.207 146.824,192.226 145.978 C 195.624 143.159,193.350 139.031,189.300 140.665 M196.182 141.382 C 194.638 142.926,194.882 147.773,196.560 148.894 C 198.874 150.439,201.200 148.515,201.200 145.054 C 201.200 140.808,198.634 138.930,196.182 141.382 M202.449 140.761 C 201.525 141.346,202.356 142.000,204.024 142.000 C 206.163 142.000,206.105 142.857,203.781 145.579 C 201.331 148.450,201.494 149.000,204.800 149.000 C 206.948 149.000,207.412 148.881,207.524 148.300 C 207.627 147.763,207.388 147.600,206.496 147.600 C 204.784 147.600,204.694 147.250,205.984 145.620 C 208.710 142.178,206.030 138.493,202.449 140.761 M209.281 141.079 C 207.754 141.819,207.623 142.400,208.983 142.400 C 209.933 142.400,209.970 142.506,210.083 145.500 C 210.191 148.369,210.267 148.610,211.100 148.728 C 211.979 148.853,212.000 148.768,212.000 145.042 C 212.000 140.609,211.564 139.974,209.281 141.079 M192.869 141.462 C 193.926 142.419,193.432 144.800,192.176 144.800 C 191.991 144.800,192.056 144.584,192.320 144.320 C 193.534 143.106,192.901 141.600,191.176 141.600 C 190.196 141.600,189.651 141.442,189.800 141.200 C 190.188 140.572,192.062 140.732,192.869 141.462 M199.971 141.854 C 201.736 144.098,200.560 148.800,198.233 148.800 C 197.164 148.800,195.824 147.475,196.132 146.723 C 196.269 146.388,196.446 146.531,196.625 147.121 C 196.860 147.895,197.135 148.023,198.352 147.921 L 199.800 147.800 199.800 144.800 L 199.800 141.800 198.384 141.681 C 197.155 141.577,196.910 141.709,196.527 142.681 C 196.134 143.675,196.080 143.702,196.043 142.923 C 195.947 140.951,198.676 140.208,199.971 141.854 M206.167 141.326 C 206.597 141.641,206.808 142.164,206.690 142.626 C 206.518 143.300,206.487 143.284,206.446 142.500 C 206.405 141.705,206.187 141.600,204.576 141.600 C 203.463 141.600,202.849 141.444,203.000 141.200 C 203.354 140.628,205.319 140.706,206.167 141.326 M211.138 144.900 L 211.076 148.600 210.827 145.400 C 210.690 143.640,210.437 141.975,210.265 141.700 C 210.065 141.380,210.178 141.200,210.576 141.200 C 211.101 141.200,211.190 141.789,211.138 144.900 M199.174 142.569 C 199.899 143.442,199.547 146.828,198.677 147.359 C 197.224 148.244,196.267 145.454,197.190 143.026 C 197.622 141.889,198.452 141.698,199.174 142.569 M205.547 145.158 C 205.026 145.817,204.457 146.366,204.283 146.378 C 204.109 146.390,204.462 145.778,205.068 145.019 C 205.674 144.259,206.243 143.710,206.332 143.799 C 206.421 143.888,206.068 144.499,205.547 145.158 M191.270 146.126 C 189.974 147.505,190.173 148.000,192.024 148.000 C 193.004 148.000,193.549 148.158,193.400 148.400 C 193.038 148.986,189.200 148.912,189.200 148.319 C 189.200 147.862,191.545 145.200,191.948 145.200 C 192.053 145.200,191.748 145.617,191.270 146.126 M203.900 147.300 C 203.837 147.613,204.362 147.847,205.300 147.924 C 207.483 148.105,207.139 148.800,204.867 148.800 C 202.609 148.800,202.276 148.588,202.920 147.557 C 203.454 146.701,204.051 146.544,203.900 147.300 M190.289 246.802 C 188.332 248.341,188.534 253.532,190.587 254.467 C 193.566 255.824,195.996 254.039,195.412 250.923 C 195.042 248.951,193.868 249.263,193.600 251.404 C 193.201 254.591,190.817 253.717,190.806 250.380 C 190.799 248.250,191.304 247.602,192.980 247.594 C 194.658 247.585,195.630 246.951,194.800 246.406 C 193.778 245.735,191.377 245.945,190.289 246.802 M197.029 246.629 C 196.399 247.258,196.069 253.936,196.639 254.506 C 197.307 255.173,198.000 254.193,198.000 252.581 C 198.000 250.523,198.706 249.832,199.051 251.553 C 199.605 254.326,201.677 254.572,202.460 251.959 C 203.078 249.893,203.600 249.981,203.600 252.151 C 203.600 253.972,204.447 255.294,205.020 254.367 C 205.531 253.541,205.204 247.051,204.622 246.459 C 203.600 245.421,202.453 246.294,201.775 248.626 C 201.004 251.278,200.656 251.345,199.991 248.967 C 199.219 246.209,198.229 245.428,197.029 246.629 M208.000 246.296 C 204.163 247.789,205.979 255.022,210.115 254.722 C 212.279 254.565,212.495 253.466,210.402 253.267 C 206.976 252.942,206.839 247.600,210.256 247.600 C 211.687 247.600,212.412 246.907,211.551 246.361 C 210.938 245.973,208.926 245.936,208.000 246.296 M194.000 246.800 C 194.000 247.020,193.392 247.200,192.649 247.200 C 190.754 247.200,190.340 247.899,190.480 250.865 C 190.595 253.299,190.644 253.405,191.700 253.527 C 193.062 253.683,193.162 254.400,191.823 254.400 C 189.470 254.400,188.569 248.869,190.654 247.229 C 191.737 246.377,194.000 246.087,194.000 246.800 M210.800 246.800 C 210.800 247.020,210.192 247.200,209.449 247.200 C 207.997 247.200,207.415 248.031,207.066 250.600 C 206.976 251.260,206.946 250.911,207.000 249.825 C 207.073 248.338,207.318 247.672,207.993 247.125 C 208.950 246.350,210.800 246.136,210.800 246.800 M199.010 247.630 C 199.326 248.628,198.926 249.194,198.567 248.257 C 197.993 246.761,197.600 247.794,197.600 250.800 C 197.600 252.667,197.433 254.000,197.200 254.000 C 196.746 254.000,196.676 251.416,197.054 248.656 C 197.332 246.632,198.498 246.020,199.010 247.630 M204.557 247.433 C 204.965 248.495,204.833 254.000,204.400 254.000 C 204.167 254.000,204.000 252.667,204.000 250.800 C 204.000 248.933,203.833 247.600,203.600 247.600 C 203.380 247.600,203.200 247.870,203.200 248.200 C 203.200 248.530,203.020 248.800,202.800 248.800 C 202.293 248.800,202.296 248.541,202.814 247.574 C 203.315 246.638,204.224 246.564,204.557 247.433 M200.000 250.647 C 200.000 250.977,199.820 251.136,199.600 251.000 C 199.380 250.864,199.200 250.483,199.200 250.153 C 199.200 249.823,199.380 249.664,199.600 249.800 C 199.820 249.936,200.000 250.317,200.000 250.647 M202.045 251.315 C 201.718 251.642,201.600 251.597,201.600 251.147 C 201.600 250.352,202.138 249.814,202.337 250.410 C 202.421 250.663,202.290 251.070,202.045 251.315 M194.800 252.480 C 194.800 253.483,194.656 254.007,194.443 253.780 C 194.114 253.430,194.293 250.800,194.645 250.800 C 194.730 250.800,194.800 251.556,194.800 252.480 M209.744 253.600 C 210.545 253.600,211.200 253.780,211.200 254.000 C 211.200 254.583,208.720 254.465,207.900 253.843 C 207.515 253.551,207.206 253.062,207.213 252.756 C 207.222 252.350,207.369 252.389,207.757 252.900 C 208.092 253.341,208.827 253.600,209.744 253.600 " stroke="none" fill="#8e3f41" fill-rule="evenodd"></path></g></svg>